<?xml version="1.0" standalone="no"?>
<!DOCTYPE svg PUBLIC "-//W3C//DTD SVG 1.1//EN" "http://www.w3.org/Graphics/SVG/1.1/DTD/svg11.dtd" >
<!--
2013-9-30: Created.
-->
<svg>
<metadata>
Created by iconfont
</metadata>
<defs>

<font id="iconfont" horiz-adv-x="1024" >
  <font-face
    font-family="iconfont"
    font-weight="500"
    font-stretch="normal"
    units-per-em="1024"
    ascent="896"
    descent="-128"
  />
    <missing-glyph />
    
    <glyph glyph-name="guanggaozhuhuodongtuiguang" unicode="&#58882;" d="M514.662409 22.180757q0-36.93563 17.98182-62.693372t43.253567-33.533664q-30.131698-1.943981-57.347425-2.915971t-49.571503-0.97199q-28.187718 0-65.609342 1.943981t-77.273226 5.345946-78.731211 7.775922-70.955289 9.233907-54.431455 9.719903-28.187718 9.719903q-10.691893 7.775922-16.037839 47.627523t4.373956 104.002958q3.887961 24.299756 16.037839 39.851601t29.645703 26.729732 38.87961 17.98182 43.739562 13.121868 43.253567 13.607864 38.393615 17.98182q20.411795 12.635873 31.589683 24.299756t15.551844 23.327766 4.373956 24.299756-0.97199 28.187718q-1.943981 22.355776-15.065849 35.477644t-29.645703 26.729732q-7.775922 6.803932-14.093859 18.95381t-11.177888 24.785752q-4.859951 14.579854-9.719903 31.103688-6.803932 1.943981-13.607864 6.803932-5.831942 4.859951-12.635873 13.607864t-11.663883 25.271747-3.401966 30.131698 5.345946 23.327766q3.887961 10.691893 11.663883 20.411795-0.97199 36.93563 3.887961 73.87126 4.859951 31.103688 14.579854 67.067328t30.131698 64.151357q18.467815 27.215727 41.309586 44.225557t46.655532 26.729732 47.627523 13.121868 46.169537 3.401966q28.187718 0 55.88944-6.317937t52.001479-17.00983 43.253567-24.299756 30.617693-27.215727q24.299756-31.103688 36.449635-68.525313t17.00983-71.441284q5.831942-38.87961 4.859951-78.731211 6.803932-4.859951 10.691893-12.635873 3.887961-6.803932 6.317937-17.495825t0.485995-26.243737q-2.915971-20.411795-9.233907-32.561674t-14.093859-18.95381q-8.747912-7.775922-18.467815-10.691893-4.859951-16.523834-9.719903-31.103688-4.859951-12.635873-10.691893-24.785752t-13.607864-18.95381q-9.719903-7.775922-17.495825-13.121868t-13.607864-11.663883-9.719903-14.093859-5.831942-20.411795q-1.943981-14.579854-1.457985-29.645703t7.775922-30.131698 22.355776-28.673713 42.281576-24.299756q5.831942-1.943981 9.719903-2.915971l0-36.93563 0-30.131698q-4.859951-0.97199-15.551844-0.97199l-65.123347 0q-89.423104 0-89.423104-70.955289l0-72.899269zM995.797587 80.500173q13.607864-10.691893 14.093859-29.645703t-10.205898-27.701722q-16.523834-12.635873-43.253567-29.645703t-56.375435-34.991649-57.347425-35.477644-45.197547-32.075679q-22.355776-18.467815-33.533664-18.95381t-11.177888 27.701722l0 47.627523q0 18.467815-8.747912 27.215727t-23.327766 8.747912l-115.666841 0q-14.579854 0-24.785752 7.289927t-10.205898 24.785752l0 48.599513q0 29.159708 9.233907 35.96364t33.533664 6.803932q11.663883 0 18.467815-0.485995t16.523834-0.485995 24.299756-0.485995 41.795581-0.485995q21.383786 0 30.131698 15.065849t8.747912 33.533664l0 46.655532q0 19.439805 8.747912 24.785752t25.271747-8.261917 44.711552-31.103688 58.805411-35.96364 59.291406-36.449635 46.169537-32.561674z"  horiz-adv-x="1024" />

    
    <glyph glyph-name="paixujiantoushang" unicode="&#59390;" d="M758.4 510.08 539.52 755.84c-14.72 16.64-40.32 16.64-54.4 0L266.24 510.08C244.48 486.4 261.76 448 293.12 448l437.76 0C762.88 448 779.52 486.4 758.4 510.08z"  horiz-adv-x="1024" />

    
    <glyph glyph-name="paixujiantouxia" unicode="&#59391;" d="M757.76 258.56l-218.88-245.76c-14.72-16.64-40.32-16.64-54.4 0L265.6 258.56C244.48 282.24 261.12 320 293.12 320l437.76 0C762.24 320 779.52 282.24 757.76 258.56z"  horiz-adv-x="1024" />

    
    <glyph glyph-name="shaixuan" unicode="&#58939;" d="M221.242514 640 802.757486 640 802.757486 552.842971 561.386057 322.442971 563.668114 143.828114 629.642971 85.021257 415.100343 85.021257 481.016686 145.671314 482.742857 324.578743 221.242514 552.228571Z"  horiz-adv-x="1024" />

    
    <glyph glyph-name="wancheng1" unicode="&#58990;" d="M512.186242 889.860163c-278.100856 0-504.362043-226.261187-504.362043-504.362043S234.085386-118.863922 512.186242-118.863922s504.362043 226.261187 504.362043 504.362043S790.287097 889.860163 512.186242 889.860163zM794.409998 482.200556 466.418872 145.959535c-7.838525-8.023744-18.590404-12.579503-29.816073-12.642948l-0.227174 0c-11.141758 0-21.834284 4.433986-29.715789 12.314467L230.289943 321.961038c-16.420995 16.396435-16.420995 43.013653 0 59.430554 16.416901 16.420995 43.013653 16.420995 59.430554 0l146.32767-146.281621 298.275337 305.866223c16.253172 16.58063 42.891879 16.891715 59.430554 0.655939C810.356179 525.399427 810.646797 498.78221 794.409998 482.200556z"  horiz-adv-x="1024" />

    
    <glyph glyph-name="quanbu" unicode="&#58947;" d="M486.4 454.4l-57.6 12.8c19.2 76.8 76.8 115.2 166.4 108.8 96 0 147.2-44.8 140.8-140.8v-147.2c0-38.4 6.4-70.4 19.2-83.2h-51.2c-12.8 12.8-19.2 32-19.2 51.2-25.6-44.8-76.8-64-140.8-64-76.8 6.4-115.2 32-121.6 96 0 70.4 44.8 108.8 134.4 115.2 70.4 6.4 115.2 12.8 128 25.6 6.4 64-25.6 96-89.6 96-70.4 6.4-102.4-19.2-108.8-70.4zM678.4 345.6v44.8c-6.4-12.8-38.4-19.2-102.4-25.6-64-6.4-96-32-96-70.4 0-38.4 32-57.6 83.2-57.6 70.4 6.4 108.8 44.8 115.2 108.8zM832 204.8v499.2h51.2v-499.2h-51.2zM972.8 204.8v499.2h51.2v-499.2h-51.2zM787.2 128c-70.4 0-128-57.6-128-128 0-12.8 0-19.2 6.4-32-51.2-19.2-102.4-25.6-153.6-25.6-243.2 0-448 198.4-448 448s198.4 448 448 448c96 0 185.6-25.6 256-83.2l38.4 51.2c-83.2 57.6-185.6 89.6-294.4 89.6-281.6 0-512-230.4-512-512s230.4-512 512-512c64 0 128 12.8 185.6 38.4 25.6-25.6 57.6-38.4 96-38.4 70.4 0 128 57.6 128 128s-64 128-134.4 128zM787.2-64c-38.4 0-64 25.6-64 64s25.6 64 64 64 64-25.6 64-64-25.6-64-64-64z"  horiz-adv-x="1024" />

    
    <glyph glyph-name="liucheng" unicode="&#58956;" d="M510.207177 609.639752c61.620491 0 111.573808 49.953317 111.573808 111.573808 0 61.620491-49.953317 111.573808-111.573808 111.573808-61.620491 0-111.572784-49.953317-111.572784-111.573808 0-61.620491 49.953317-111.573808 111.572784-111.573808z m0 167.218904c30.682772 0 55.64612-24.962324 55.646119-55.64612 0-30.682772-24.962324-55.64612-55.646119-55.646119-30.682772 0-55.645096 24.962324-55.645096 55.646119s24.962324 55.64612 55.645096 55.64612zM174.697362 313.436895c-61.620491 0-111.573808-49.953317-111.573808-111.573808 0-61.620491 49.953317-111.573808 111.573808-111.573807S286.27117 140.242597 286.27117 201.863087c-0.001024 61.620491-49.953317 111.573808-111.573808 111.573808z m0-167.218903c-30.682772 0-55.64612 24.962324-55.64612 55.646119 0 30.682772 24.962324 55.64612 55.64612 55.64612s55.64612-24.962324 55.64612-55.64612c-0.001024-30.683795-24.963348-55.64612-55.64612-55.646119zM845.950438 313.436895c-61.620491 0-111.573808-49.953317-111.573808-111.573808 0-61.620491 49.953317-111.573808 111.573808-111.573807s111.573808 49.953317 111.573807 111.573807c0 61.620491-49.953317 111.573808-111.573807 111.573808z m0-167.218903c-30.683795 0-55.64612 24.962324-55.64612 55.646119 0 30.682772 24.962324 55.64612 55.64612 55.64612 30.682772 0 55.64612-24.962324 55.646119-55.64612s-24.963348-55.64612-55.646119-55.646119zM509.424928 16.384213c-79.713568 0-157.405987 27.895756-218.755147 78.525861l-35.610732-43.119906c71.35764-58.904123 161.694018-91.333643 254.364856-91.333643 93.463324 0 184.400723 32.934295 256.044027 92.726127l-35.82882 42.92844c-61.620491-51.408258-139.818708-79.726879-220.214184-79.726879zM853.375654 360.334938h55.927688c0 154.825796-90.704977 297.157118-231.098085 362.601821l-23.622058-50.684371c120.758059-56.310621 198.792455-178.734542 198.792455-311.91745zM364.266658 672.252388l-23.622058 50.684371c-140.379797-65.444702-231.084775-207.777049-231.084775-362.601821h55.927688c0 133.182908 78.034396 255.621162 198.779145 311.91745z"  horiz-adv-x="1024" />

    
    <glyph glyph-name="huiyuanquanyi" unicode="&#59193;" d="M148.72381 176.761905l-97.52381-156.038095c-4.87619-9.752381 0-21.942857 12.190476-21.942858l131.657143-7.314285c4.87619 0 7.314286-2.438095 9.752381-4.876191l80.457143-107.27619c7.314286-7.314286 19.504762-7.314286 24.380952 0l92.647619 153.6c4.87619 7.314286 2.438095 14.628571-4.87619 19.504762l-229.180953 129.219047c-7.314286 2.438095-14.628571 0-19.504761-4.87619zM875.27619 179.2l97.52381-156.038095c4.87619-9.752381 0-21.942857-12.190476-21.942857L828.952381-6.095238c-4.87619 0-7.314286-2.438095-9.752381-4.876191l-80.457143-107.27619c-7.314286-7.314286-19.504762-7.314286-24.380952 0l-92.647619 153.6c-4.87619 7.314286-2.438095 14.628571 4.87619 19.504762l229.180953 129.219047c7.314286 4.87619 14.628571 2.438095 19.504761-4.87619zM855.771429 710.704762L546.133333 886.247619c-21.942857 12.190476-51.2 12.190476-73.142857 0L165.790476 713.142857C143.847619 700.952381 129.219048 676.571429 129.219048 652.190476v-348.647619c0-24.380952 14.628571-48.761905 36.571428-60.952381L475.428571 67.047619c21.942857-12.190476 51.2-12.190476 73.142858 0l307.2 170.666667c21.942857 12.190476 36.571429 36.571429 36.571428 60.952381V647.314286c0 26.819048-14.628571 51.2-36.571428 63.390476z m-146.285715-148.72381l-180.419047-260.87619c-4.87619-7.314286-14.628571-12.190476-24.380953-12.190476s-19.504762 4.87619-24.380952 12.190476l-173.104762 260.87619c-9.752381 12.190476-4.87619 31.695238 7.314286 39.009524 12.190476 7.314286 31.695238 4.87619 39.009524-7.314286l148.723809-224.304761 156.038095 226.742857c9.752381 12.190476 26.819048 17.066667 39.009524 7.314285 19.504762-12.190476 21.942857-29.257143 12.190476-41.447619z"  horiz-adv-x="1024" />

    
    <glyph glyph-name="wenjian" unicode="&#58936;" d="M887.826598 506.525568 136.174426 506.525568c-25.110911 0-43.055608-24.208355-40.117696-53.69083l59.846016-360.486214c2.127454-21.328771 20.853957-38.433334 41.851177-38.433334l628.490108 0c20.99722 0 39.72577 17.104563 41.851177 38.433334l59.846016 360.486214C930.880159 482.317213 912.937508 506.525568 887.826598 506.525568zM806.544363 636.108878 445.128987 636.108878l-59.390645 77.976956L219.091904 714.085834c-25.112957 0-45.468564-20.3597-45.468564-45.470611l0-65.886593 676.755368 0C845.081051 621.971903 827.468928 636.108878 806.544363 636.108878zM891.581108 527.56372l2.178619 19.791765L130.240273 547.355485l2.178619-19.791765L891.581108 527.56372zM875.704512 564.445722l2.840698 20.536732L145.45479 584.982454l2.839675-20.536732L875.704512 564.445722z"  horiz-adv-x="1024" />

    
    <glyph glyph-name="message-channel" unicode="&#59017;" d="M832.9 832h-641.8c-69.9 0-127.1-57.2-127.1-127.1v-513.7c0-70 57.2-127.2 127.1-127.2h192.9l128-128 128 128h192.9c69.9 0 127.1 57.2 127.1 127.1v513.8c0 69.9-57.2 127.1-127.1 127.1zM192 384h448v-64h-448v64zM832 448h-640v64h640v-64zM832 576h-640v64h640v-64z"  horiz-adv-x="1024" />

    
    <glyph glyph-name="duanxin1" unicode="&#59321;" d="M850.727 779.734H171.593c-72.728 0-108.108-35.866-108.108-107.608v-430.43c0-71.746 33.193-105.653 104.108-105.653h104.112l-12.808-109.564a35.679 35.679 0 0 1 19.029-31.562 35.753 35.753 0 0 1 17.005-4.307c6.988 0 13.982 2.014 19.962 6.028L521.57 136.043h333.156c72.081 0 104.109 33.906 104.109 105.653v430.43c0 71.742-36.033 107.608-108.108 107.608zM303.159 405.828c-28.658 0-51.949 23.3-51.949 51.873 0 28.57 23.292 51.968 51.949 51.968 28.655 0 51.95-23.304 51.95-51.968-0.005-28.668-23.392-51.873-51.95-51.873z m207.887 0c-28.809 0-52.214 23.3-52.214 51.873 0 28.57 23.41 51.968 52.214 51.968 28.806 0 52.211-23.304 52.211-51.968 0.001-28.668-23.507-51.873-52.21-51.873z m208.21 0c-28.81 0-52.133 23.3-52.133 51.873 0 28.57 23.323 51.968 52.132 51.968 28.797 0 52.207-23.304 52.207-51.968 0-28.668-23.405-51.873-52.207-51.873z m0 0"  horiz-adv-x="1024" />

    
    <glyph glyph-name="lujing" unicode="&#58937;" d="M650.666667 618.666667c0 29.866667-23.466667 53.333333-53.333334 53.333333s-53.333333-23.466667-53.333333-53.333333 23.466667-53.333333 53.333333-53.333334 53.333333 23.466667 53.333334 53.333334z m106.666666-384h-533.333333C194.133333 234.666667 170.666667 258.133333 170.666667 288S194.133333 341.333333 224 341.333333H597.333333s164.266667 130.133333 164.266667 258.133334C761.6 693.333333 686.933333 768 597.333333 768s-164.266667-74.666667-164.266666-168.533333c0-83.2 68.266667-168.533333 117.333333-217.6H224C170.666667 384 128 341.333333 128 288S170.666667 192 224 192h533.333333c29.866667 0 53.333333-23.466667 53.333334-53.333333S787.2 85.333333 757.333333 85.333333h-533.333333v-42.666666h533.333333c53.333333 0 96 42.666667 96 96S810.666667 234.666667 757.333333 234.666667zM475.733333 601.6c0 68.266667 53.333333 125.866667 121.6 125.866667 66.133333 0 121.6-55.466667 121.6-125.866667 0-72.533333-72.533333-157.866667-121.6-202.666667-49.066667 44.8-121.6 128-121.6 202.666667z"  horiz-adv-x="1024" />

    
    <glyph glyph-name="gongrezhouqi" unicode="&#58880;" d="M735.5-63h-447C165.3-63 65 37.3 65 160.5v447C65 730.7 165.3 831 288.5 831h447C858.7 831 959 730.7 959 607.5v-447C959 37.3 858.7-63 735.5-63z m-447 812.7c-78.4 0-142.2-63.8-142.2-142.2v-447c0-78.4 63.8-142.2 142.2-142.2h447c78.4 0 142.2 63.8 142.2 142.2v447c0 78.4-63.8 142.2-142.2 142.2h-447zM569.5 421.4H627v-57.5h-57.5v57.5zM483.3 421.4h57.5v-57.5h-57.5v57.5zM569.5 317.8H627v-57.5h-57.5v57.5zM382.6 548.4c12.1 0 21.8 9.8 21.8 21.9V614h-43.7v-43.7c0.1-12.1 9.9-21.9 21.9-21.9zM641.4 546.9c12.3 0 22.2 9.9 22.2 22.2V614h-44.4v-44.8c0-12.3 9.9-22.3 22.2-22.3zM397 317.8h57.5v-57.5H397v57.5zM483.3 317.8h57.5v-57.5h-57.5v57.5zM684.5 608.7v-37.8c0-23.8-19.3-43.1-43.1-43.1s-43.1 19.3-43.1 43.1V614H425.7v-43.1c0-23.8-19.3-43.1-43.1-43.1s-43.1 19.3-43.1 43.1v37.8c-33.4-11.9-57.5-43.5-57.5-81v-287.5c0-47.6 38.6-86.2 86.3-86.2h287.5c47.6 0 86.2 38.6 86.2 86.2V527.7c0 37.5-24.1 69.1-57.5 81z m8.1-379.7c0-16.9-13.5-30.6-30.2-30.6H359.8c-16.7 0-30.3 13.7-30.3 30.6V474h363v-245h0.1zM397 421.4h57.5v-57.5H397v57.5z"  horiz-adv-x="1024" />

    
    <glyph glyph-name="xiaoxi" unicode="&#58900;" d="M369 506.5c-13.6 0-24.7 11.1-24.7 24.7s11.1 24.7 24.7 24.7h298.1c13.6 0 24.7-11.1 24.7-24.7s-11.1-24.7-24.7-24.7H369zM404.3 357.5c-13.6 0-24.7 11.1-24.7 24.7s11.1 24.7 24.7 24.7h227.4c13.6 0 24.7-11.1 24.7-24.7s-11.1-24.7-24.7-24.7H404.3zM290.2-127c-6.5 0-12.6 2.5-17.2 6.9-7.3 7.1-9.6 17.7-5.7 27.1 18.4 45.2 35.2 96.3 39.2 118.8l0.8 4.5-2.3 4c-2.2 3.8-3.3 7.9-3.3 12.3 0 13.6 11.1 24.7 24.7 24.7 9.8 0 19-4.9 24.5-13 4.9-7.2 13-19.2-5.7-81.4l-9-29.9 27.1 15.4c38.6 21.9 104.8 63 115.3 92.6 3.4 9.6 12.4 15.8 23 15.8 1.6 0 3.1-0.1 4.7-0.4l2.3-0.4 2.3 0.4c1.1 0.2 2.2 0.5 3.3 0.8 0.4 0.1 0.8 0.3 1.3 0.3 253.1 0 459.3 172.8 459.3 385.1 0 212.4-206.2 385.1-459.7 385.1S55.4 669.1 55.4 456.7c0-114.7 63.5-223.6 174.2-298.8 5.5-3.7 9.2-9.3 10.4-15.8 1.2-6.5-0.1-13.1-3.8-18.5-4.6-6.8-12.3-10.9-20.5-10.9-4.9 0-9.7 1.5-13.8 4.3-124.6 84.5-196 208.3-196 339.7C5.9 696.4 234.3 891.3 515 891.3c280.8 0 509.2-195 509.2-434.6 0-235.5-224.5-430.3-500.5-434.2l-6.4-0.1-3.7-5.2c-45-63.7-174.7-124.9-213.4-142.1-3.1-1.4-6.5-2.1-10-2.1z"  horiz-adv-x="1024" />

    
    <glyph glyph-name="shijian" unicode="&#58997;" d="M502.897778 820.906667C257.137778 820.906667 59.164444 622.933333 59.164444 377.173333s200.248889-443.733333 443.733334-443.733333c245.76 0 443.733333 197.973333 443.733333 443.733333S746.382222 820.906667 502.897778 820.906667z m288.995555-577.991111c-6.826667-13.653333-18.204444-20.48-31.857777-20.48-4.551111 0-9.102222 0-13.653334 2.275555l-261.688889 118.328889c-11.377778 4.551111-20.48 18.204444-20.48 31.857778V620.657778c0 18.204444 15.928889 34.133333 34.133334 34.133333s34.133333-15.928889 34.133333-34.133333V395.377778L773.688889 286.151111c18.204444-6.826667 25.031111-25.031111 18.204444-43.235555z"  horiz-adv-x="1024" />

    
    <glyph glyph-name="icon-test" unicode="&#58891;" d="M509.559-7.85c-181.374 0-328.932 147.558-328.932 328.929 0 181.377 147.558 328.935 328.932 328.935s328.935-147.558 328.935-328.935c0-181.371-147.561-328.929-328.935-328.929z m0 619.378c-160.15 0-290.441-130.293-290.441-290.449 0-160.15 130.291-290.443 290.441-290.443 160.152 0 290.443 130.293 290.443 290.443 0.001 160.155-130.29 290.449-290.443 290.449zM509.559 60.376c-143.755 0-260.709 116.948-260.709 260.704s116.954 260.709 260.709 260.709c143.758 0 260.712-116.954 260.712-260.709S653.317 60.376 509.559 60.376z m0 482.926c-122.531 0-222.218-99.689-222.218-222.223 0-122.528 99.687-222.218 222.218-222.218 122.534 0 222.22 99.689 222.22 222.218 0.001 122.534-99.686 222.223-222.22 222.223zM476.157 611.528c-10.629 0-19.246 8.614-19.246 19.243v54.902c0 10.629 8.616 19.243 19.246 19.243s19.246-8.614 19.246-19.243v-54.902c0-10.629-8.616-19.243-19.246-19.243zM550.573 611.528c-10.629 0-19.246 8.614-19.246 19.243v54.902c0 10.629 8.616 19.243 19.246 19.243 10.629 0 19.246-8.614 19.246-19.243v-54.902c-0.001-10.629-8.617-19.243-19.246-19.243zM599.269 674.481H426.965c-10.629 0-19.246 8.614-19.246 19.243v65.409c0 10.629 8.616 19.243 19.246 19.243h172.304c10.629 0 19.246-8.614 19.246-19.243v-65.409c0-10.629-8.617-19.243-19.246-19.243z m-153.058 38.486h133.813V739.89H446.211v-26.923zM509.57 481.15c-5.052 0-10.048 2.063-13.634 5.649-3.583 3.586-5.593 8.529-5.593 13.631a19.52 19.52 0 0 0 5.593 13.637c3.586 3.527 8.582 5.59 13.634 5.59 5.049 0 9.993-2.063 13.578-5.59 3.583-3.639 5.649-8.582 5.649-13.637a19.382 19.382 0 0 0-5.649-13.631c-3.585-3.586-8.529-5.649-13.578-5.649zM509.57 126.867a19.372 19.372 0 0 0-13.634 5.649c-3.583 3.58-5.593 8.524-5.593 13.631 0 5.049 2.01 10.046 5.593 13.578a19.372 19.372 0 0 0 13.634 5.649c5.049 0 10.046-2.063 13.578-5.649 3.583-3.532 5.649-8.529 5.649-13.578a19.362 19.362 0 0 0-5.649-13.631c-3.585-3.586-8.529-5.649-13.578-5.649zM598.208 457.414c-5.052 0-10.048 2.063-13.631 5.649-3.586 3.586-5.596 8.529-5.596 13.578 0 5.055 2.01 10.051 5.596 13.631 7.168 7.171 20.041 7.171 27.21 0 3.586-3.639 5.649-8.577 5.649-13.631 0-5.049-2.063-9.993-5.649-13.578s-8.527-5.649-13.579-5.649zM420.929 150.656a19.364 19.364 0 0 0-13.631 5.649c-3.586 3.586-5.649 8.524-5.649 13.578a19.369 19.369 0 0 0 5.649 13.631c7.168 7.171 20.041 7.171 27.21 0a19.37 19.37 0 0 0 5.649-13.631c0-5.055-2.063-9.993-5.649-13.578-3.583-3.586-8.527-5.649-13.579-5.649zM663.058 392.456c-5.049 0-9.993 2.063-13.631 5.649-3.586 3.586-5.596 8.529-5.596 13.578 0 5.108 2.01 10.051 5.596 13.631 7.224 7.171 20.094 7.171 27.21 0a19.351 19.351 0 0 0 5.649-13.631c0-5.049-2.063-9.993-5.649-13.578-3.531-3.586-8.527-5.649-13.579-5.649zM356.079 215.614c-5.049 0-10.048 2.063-13.631 5.649-3.586 3.586-5.649 8.524-5.649 13.578a19.369 19.369 0 0 0 5.649 13.631c7.168 7.171 20.041 7.171 27.21 0a19.37 19.37 0 0 0 5.649-13.631c0-5.055-2.063-9.993-5.649-13.578-3.583-3.586-8.527-5.649-13.579-5.649zM686.685 303.762c-5.052 0-9.993 2.063-13.578 5.649-3.586 3.586-5.649 8.529-5.649 13.578a19.374 19.374 0 0 0 5.649 13.637c7.168 7.166 20.041 7.166 27.21 0a19.374 19.374 0 0 0 5.649-13.637c0-5.049-2.063-9.993-5.649-13.578a19.364 19.364 0 0 0-13.632-5.649zM332.4 304.308c-5.052 0-9.993 2.063-13.578 5.649-3.586 3.527-5.649 8.524-5.649 13.578 0 5.049 2.063 10.046 5.649 13.631 7.168 7.171 20.041 7.171 27.21 0a19.37 19.37 0 0 0 5.649-13.631c0-5.055-2.063-10.051-5.649-13.578a19.364 19.364 0 0 0-13.632-5.649zM662.787 215.179c-5.052 0-10.049 2.063-13.578 5.596-3.586 3.639-5.649 8.582-5.649 13.631s2.063 10.046 5.649 13.631c7.168 7.171 20.041 7.171 27.21 0 3.586-3.586 5.649-8.582 5.649-13.631s-2.063-9.993-5.649-13.631c-3.583-3.533-8.526-5.596-13.632-5.596zM356.297 392.891c-5.052 0-9.993 2.063-13.578 5.649a19.37 19.37 0 0 0-5.649 13.631c0 5.055 2.063 9.998 5.649 13.578 7.168 7.171 20.041 7.171 27.212 0 3.583-3.58 5.649-8.524 5.649-13.578a19.382 19.382 0 0 0-5.649-13.631 19.372 19.372 0 0 0-13.634-5.649zM597.773 150.438c-5.105 0-10.048 2.01-13.631 5.596a19.351 19.351 0 0 0-5.649 13.631c0 5.049 2.063 10.046 5.649 13.578 7.168 7.166 20.041 7.224 27.21 0 3.586-3.532 5.649-8.529 5.649-13.578a19.35 19.35 0 0 0-5.649-13.631c-3.583-3.586-8.527-5.596-13.579-5.596zM421.364 457.631c-5.049 0-9.993 2.063-13.578 5.649s-5.649 8.582-5.649 13.631c0 5.055 2.063 10.051 5.649 13.578 7.171 7.171 19.988 7.171 27.212 0 3.583-3.58 5.593-8.524 5.593-13.578 0-5.049-2.01-10.046-5.593-13.631-3.641-3.585-8.582-5.649-13.634-5.649zM420.839 215.163a19.196 19.196 0 0 0-14.339 6.402c-7.091 7.914-6.423 20.081 1.49 27.173l64.144 57.474c7.919 7.091 20.081 6.428 27.178-1.49 7.091-7.914 6.423-20.081-1.49-27.173l-64.144-57.474a19.17 19.17 0 0 0-12.839-4.912zM265.036 501.761c-5.301 0-10.579 2.175-14.382 6.444l-43.496 48.85c-7.068 7.94-6.362 20.102 1.575 27.173 7.943 7.07 20.105 6.36 27.173-1.575l43.496-48.85c7.068-7.94 6.362-20.102-1.575-27.173a19.168 19.168 0 0 0-12.791-4.869zM309.03 540.937c-5.301 0-10.579 2.175-14.382 6.444l-43.498 48.85c-7.068 7.94-6.362 20.102 1.575 27.173 7.943 7.054 20.108 6.354 27.173-1.575l43.498-48.85c7.068-7.94 6.362-20.102-1.575-27.173a19.193 19.193 0 0 0-12.791-4.869zM187.409 535.023c-5.301 0-10.579 2.175-14.379 6.444-7.07 7.94-6.365 20.102 1.573 27.173l93.725 83.459c7.943 7.054 20.108 6.354 27.17-1.575 7.07-7.94 6.365-20.102-1.573-27.173L200.2 539.892a19.193 19.193 0 0 0-12.791-4.869zM750.54 501.761c-4.551 0-9.12 1.602-12.791 4.869-7.938 7.07-8.643 19.232-1.575 27.173l43.496 48.85c7.07 7.935 19.23 8.646 27.172 1.575 7.938-7.07 8.643-19.232 1.575-27.173l-43.496-48.85c-3.802-4.269-9.08-6.444-14.381-6.444zM706.546 540.937a19.168 19.168 0 0 0-12.791 4.869c-7.938 7.07-8.643 19.232-1.575 27.173l43.498 48.85c7.07 7.93 19.232 8.64 27.173 1.575 7.938-7.07 8.643-19.232 1.575-27.173l-43.498-48.85c-3.803-4.27-9.081-6.444-14.382-6.444zM828.167 535.023a19.168 19.168 0 0 0-12.791 4.869l-93.725 83.459c-7.938 7.07-8.643 19.232-1.573 27.173 7.065 7.93 19.23 8.646 27.17 1.575l93.725-83.459c7.937-7.07 8.643-19.232 1.573-27.173-3.8-4.27-9.078-6.444-14.379-6.444zM509.559 340.025c-10.444 0-18.941-8.502-18.941-18.946s8.497-18.941 18.941-18.941c10.446 0 18.943 8.497 18.943 18.941 0 5.06-1.97 9.818-5.548 13.393a18.817 18.817 0 0 1-13.395 5.553z m0-76.372c-31.668 0-57.432 25.762-57.432 57.427 0 31.67 25.764 57.432 57.432 57.432 15.339 0 29.764-5.972 40.61-16.819 10.849-10.852 16.824-25.274 16.824-40.613 0.001-31.666-25.763-57.427-57.434-57.427z"  horiz-adv-x="1024" />

    
    <glyph glyph-name="duanxin2" unicode="&#58921;" d="M821 664.9s90.2-150.3 20-344.3c-13-35.6-34.9-67.6-64.4-91.4-111.9-90.4-281.3-80.2-287.9-83.5-7.6-3.8-14.2-30.6-67.3-87.5l82.5 56.3s287.8-10.8 358.8 75.9c68.3 83.5 79.7 264.6 24.7 365.8-24.7 70.8-43.7 108.7-66.4 108.7zM387.5 34.7c-4.4 0-8.5 2.6-10.3 6.6-1.9 4-1.2 8.8 1.7 12.2 17.5 20.5 19.7 31.5 18.6 55.8-76.5 7.8-130.2 15.7-168.3 24.9-45 10.9-82.5 40.3-102.9 80.8C73 321 90.6 481.1 114.8 596.7c12.5 59.8 61.4 106.3 121.8 115.7 267.6 41.6 484.6 15.1 580.9-29.7 44.1-20.5 80.8-79.4 100.7-161.5C943.7 415.9 939 270.6 871 183.3c-63.3-81.3-227-86.7-364.3-81.6-1.5-1.5-3.2-3.5-5-5.4-18.2-20-56.1-61.6-114.2-61.6zM137.2 592.1c-19.2-91.7-43.4-261.4 9.6-366.8 17.3-34.5 49.4-59.6 87.9-68.9 38.7-9.3 94.2-17.4 174.9-25.4 5.6-0.6 9.9-5.1 10.2-10.6 1.5-24.4 1.8-41-8.2-59.9 34.9 8.9 59.2 35.5 73.4 51.1 4.3 4.7 7.4 8.1 10.2 10.4 2.2 1.8 4.9 2.8 7.7 2.6 132.8-5.1 292.6-1.4 350.3 72.8 63.3 81.4 67.2 218.6 43 318.6-18 74.3-50.9 128.9-88.2 146.2-93.3 43.3-305 68.6-567.9 27.8-51-7.9-92.4-47.2-102.9-97.9zM301.8 348.5c-4.4 0-8.9 0.5-13.4 1.6-29.6 7.1-49.3 22.3-58.5 45.2-7.1 17.7-5.7 36.8 3.8 53.8 10.8 19.1 31 32.8 54.1 36.5 38.9 6.3 57.1-12.9 64.5-24.9 15.2-24.6 12.6-62.4-5.9-87.9-11.3-15.8-27.2-24.3-44.6-24.3z m0.8 115.6c-3.5 0-7.1-0.3-11-1-16.3-2.7-30.5-12.1-38-25.2-6.1-10.8-7-22.9-2.5-34.1 6.3-15.6 20.6-26.2 42.6-31.5 17.1-4.1 28.1 5.3 34.3 13.8 13 17.9 15.2 46 4.9 62.6-6.2 10.3-16.4 15.4-30.3 15.4z m-12.9 10.3h0.1-0.1zM520.1 348.5c-4.4 0-8.9 0.5-13.4 1.6-29.6 7.1-49.3 22.3-58.5 45.2-7.1 17.7-5.7 36.8 3.8 53.8 10.8 19.1 31 32.8 54.1 36.5 38.8 6.3 57.1-12.9 64.5-24.9 15.2-24.6 12.6-62.4-5.9-87.9-11.3-15.8-27.2-24.3-44.6-24.3z m0.8 115.6c-3.5 0-7.1-0.3-11-1-16.3-2.7-30.5-12.1-38-25.2-6.1-10.8-7-22.9-2.5-34.1 6.3-15.6 20.6-26.2 42.6-31.5 17.1-4.1 28.1 5.3 34.3 13.8 13 17.9 15.2 46 4.9 62.6-6.2 10.3-16.4 15.4-30.3 15.4zM508 474.4h0.1-0.1zM738.4 348.5c-4.4 0-8.9 0.5-13.4 1.6-29.6 7.1-49.3 22.3-58.5 45.2-7.1 17.7-5.7 36.8 3.8 53.8 10.8 19.1 31 32.8 54.1 36.5 38.8 6.3 57.1-12.9 64.5-24.9 15.2-24.6 12.6-62.4-5.9-87.9-11.4-15.8-27.2-24.3-44.6-24.3z m0.8 115.6c-3.5 0-7.1-0.3-11-1-16.3-2.7-30.5-12.1-38-25.2-6.1-10.8-7-22.9-2.5-34.1 6.3-15.6 20.6-26.2 42.6-31.5 17.1-4.1 28.1 5.3 34.3 13.8 13 17.9 15.2 46 4.9 62.6-6.2 10.3-16.4 15.4-30.3 15.4z m-12.9 10.3zM900.9 512.3c-2 0-4 0.8-5.5 2.3l-19.3 20.1c-2.9 3-2.8 7.8 0.2 10.7 3 2.9 7.8 2.8 10.7-0.2l19.3-20.1c2.9-3 2.8-7.8-0.2-10.7-1.4-1.4-3.3-2.1-5.2-2.1zM912.1 459.9c-1.9 0-3.9 0.7-5.4 2.2l-22.8 22.8c-3 3-3 7.8 0 10.7 3 3 7.8 3 10.7 0l22.8-22.8c3-3 3-7.8 0-10.7-1.4-1.4-3.4-2.2-5.3-2.2zM915.9 410.6c-1.9 0-3.9 0.7-5.4 2.2l-26.6 26.6c-3 3-3 7.8 0 10.7 3 3 7.8 3 10.7 0l26.6-26.6c3-3 3-7.8 0-10.7-1.4-1.5-3.4-2.2-5.3-2.2zM912.1 357.4c-1.9 0-3.9 0.7-5.4 2.2l-26.6 26.6c-3 3-3 7.8 0 10.7 3 3 7.8 3 10.7 0l26.6-26.6c3-3 3-7.8 0-10.7-1.4-1.4-3.4-2.2-5.3-2.2zM908.3 308.1c-1.9 0-3.9 0.7-5.4 2.2l-30.4 30.4c-3 3-3 7.8 0 10.7 3 3 7.8 3 10.7 0l30.4-30.4c3-3 3-7.8 0-10.7-1.4-1.5-3.4-2.2-5.3-2.2zM893.1 262.5c-1.9 0-3.9 0.7-5.4 2.2l-34.2 34.2c-3 3-3 7.8 0 10.7 3 3 7.8 3 10.7 0l34.2-34.2c3-3 3-7.8 0-10.7-1.4-1.4-3.4-2.2-5.3-2.2zM874.1 217c-1.9 0-3.9 0.7-5.4 2.2l-38 38c-3 3-3 7.8 0 10.7 3 3 7.8 3 10.7 0l38-38c3-3 3-7.8 0-10.7-1.4-1.5-3.3-2.2-5.3-2.2zM847.5 179c-1.9 0-3.9 0.7-5.4 2.2l-45.6 45.6c-3 3-3 7.8 0 10.7 3 3 7.8 3 10.7 0l45.6-45.6c3-3 3-7.8 0-10.7-1.4-1.5-3.3-2.2-5.3-2.2zM813.4 148.6c-1.9 0-3.9 0.7-5.4 2.2l-45.6 45.6c-3 3-3 7.8 0 10.7 3 3 7.8 3 10.7 0l45.6-45.6c3-3 3-7.8 0-10.7-1.4-1.4-3.4-2.2-5.3-2.2zM764 129.6c-1.9 0-3.9 0.7-5.4 2.2l-41.8 41.8c-3 3-3 7.8 0 10.7 3 3 7.8 3 10.7 0l41.8-41.8c3-3 3-7.8 0-10.7-1.4-1.4-3.3-2.2-5.3-2.2zM707.1 114.4c-1.9 0-3.9 0.7-5.4 2.2L671.3 147c-3 3-3 7.8 0 10.7 3 3 7.8 3 10.7 0l30.4-30.4c3-3 3-7.8 0-10.7-1.4-1.4-3.4-2.2-5.3-2.2zM653.9 103.1c-1.9 0-3.9 0.7-5.4 2.2l-30.4 30.4c-3 3-3 7.8 0 10.7 3 3 7.8 3 10.7 0l30.4-30.4c3-3 3-7.8 0-10.7-1.4-1.5-3.3-2.2-5.3-2.2zM589.4 103.1c-1.9 0-3.9 0.7-5.4 2.2l-22.8 22.8c-3 3-3 7.8 0 10.7 3 3 7.8 3 10.7 0l22.8-22.8c3-3 3-7.8 0-10.7-1.4-1.5-3.4-2.2-5.3-2.2z"  horiz-adv-x="1024" />

    
    <glyph glyph-name="kechengzhouqi" unicode="&#58881;" d="M818.3 166.1h-29.9V236c0 11-8.9 20-20 20-11 0-20-8.9-20-20v-89.8c0-11 8.9-20 20-20h49.9c11 0 20 8.9 20 20 0 11-9 19.9-20 19.9zM732.7 661.9H666v-32.2c0-23.2-19-42.1-42.1-42.1-23.2 0-42.1 19-42.1 42.1v32.2H324.5v-32.2c0-23.2-19-42.1-42.1-42.1-23.2 0-42.1 19-42.1 42.1v32.2h-72.1c-33 0-60-27-60-60v-457c0-33 27-60 60-60H661.5c-14.1 22.1-22.3 48.3-22.3 76.4 0 78.4 63.6 142 142 142 3.9 0 7.8-0.2 11.6-0.5V601.9c-0.1 33-27.1 60-60.1 60zM565.8 456c-16.8-14.6-31.5-32.5-44.6-53.8-12.9-21.3-23.6-44-32.3-68-8.7-24-15.4-48.3-20.1-73-4.7-24.6-7.3-47.5-7.5-68.8h-69.4c3.8 47.8 14.9 93.7 33.5 137.8 18.8 44 43.3 84.5 73.7 121.3H347.8v60.2h218.1V456zM732.7 684.4h-28.5v31.3c0 44.4-36.1 80.5-80.5 80.5s-80.5-36.1-80.5-80.5v-31.3H362.8v31.3c0 44.4-36.1 80.5-80.5 80.5s-80.5-36.1-80.5-80.5v-31.3h-33.7c-45.5 0-82.5-37-82.5-82.5v-457c0-45.5 37-82.5 82.5-82.5h401.2c12.4 0 22.5 10.1 22.5 22.5s-10.1 22.5-22.5 22.5H168.1c-20.7 0-37.5 16.8-37.5 37.5v457c0 20.7 16.8 37.5 37.5 37.5h33.7v-12.9c0-44.4 36.1-80.5 80.5-80.5s80.5 36.1 80.5 80.5v12.9h180.5v-12.9c0-44.4 36.1-80.5 80.5-80.5s80.5 36.1 80.5 80.5v12.9h28.5c20.7 0 37.5-16.8 37.5-37.5v-220c0-12.4 10.1-22.5 22.5-22.5s22.5 10.1 22.5 22.5v220c-0.1 45.5-37.1 82.5-82.6 82.5z m-414.9-57.9c0-19.6-15.9-35.5-35.5-35.5s-35.5 15.9-35.5 35.5v89.2c0 19.6 15.9 35.5 35.5 35.5s35.5-15.9 35.5-35.5v-89.2z m341.5 0c0-19.6-15.9-35.5-35.5-35.5s-35.5 15.9-35.5 35.5v89.2c0 19.6 15.9 35.5 35.5 35.5s35.5-15.9 35.5-35.5v-89.2zM777.8 4.9c-88.8 0-161.1 72.3-161.1 161.1S689 327.1 777.8 327.1 938.9 254.8 938.9 166s-72.3-161.1-161.1-161.1z m0 277.3c-64 0-116.1-52.1-116.1-116.1 0-64 52.1-116.1 116.1-116.1 64 0 116.1 52.1 116.1 116.1 0 64-52.1 116.1-116.1 116.1z"  horiz-adv-x="1024" />

    
    <glyph glyph-name="tubiaozhizuomoban-" unicode="&#58889;" d="M512 382m-448 0a448 448 0 1 1 896 0 448 448 0 1 1-896 0ZM512 384m-253.15 0a253.15 253.15 0 1 1 506.3 0 253.15 253.15 0 1 1-506.3 0ZM512 384m-203.07 0a203.07 203.07 0 1 1 406.14 0 203.07 203.07 0 1 1-406.14 0ZM622.12 399h-91.31a24.09 24.09 0 0 1-11.46 7.92V535.78a6 6 0 0 1-6 6h-2.81a6 6 0 0 1-6-6v-128.93a24.06 24.06 0 1 1 26.19-38.08h91.49a6 6 0 0 1 6 6V393a6 6 0 0 1-6.1 6z"  horiz-adv-x="1024" />

    
    <glyph glyph-name="lujing1" unicode="&#58899;" d="M715.65312 404.7872c75.55072 0.47104 129.92512 90.39872 161.95584 165.72416 37.62176 88.53504-11.91936 149.89312-80.2816 202.07616-29.94176 22.8352-60.6208 22.48704-96.48128 22.48704-46.98112 0-71.80288-18.88256-104.50944-50.66752-27.38176-26.624-55.27552-53.73952-60.1088-93.67552-2.82624-23.38816 1.92512-50.19648 10.15808-72.17152 30.69952-81.77664 84.1728-174.30528 169.2672-173.7728zM713.95328 695.5008c45.42464-1.37216 67.70688-27.62752 71.94624-71.0656-8.58112-43.78624-33.93536-67.3792-78.90944-65.08544-44.4416 2.27328-72.704 26.50112-70.3488 71.51616 2.31424 44.97408 33.13664 66.00704 77.312 64.63488zM1016.85248 160.60416c-6.656 35.4304-33.13664 53.82144-66.3552 62.13632-60.8256 15.21664-116.10112 26.66496-170.57792 59.41248a1780.26496 1780.26496 0 0 1-48.9472 28.83584c-8.13056 4.608-48.06656 19.29216-50.62656 27.11552 29.696-91.40224 103.85408-107.06944 186.22464-131.3792 30.63808-9.0112 80.50688-17.85856 91.66848-53.43232 15.85152-50.66752-63.01696-80.11776-98.54976-89.88672-74.48576-20.48-152.20736-24.39168-228.90496-18.39104-34.75456 2.72384-69.87776 6.02112-103.85408 14.04928-34.65216 8.15104-78.92992 26.46016-113.90976 10.5472-38.58432-17.57184-30.80192-38.37952 2.10944-54.4768 45.4656-22.28224 96.68608-22.81472 146.2272-23.28576 51.87584-0.45056 103.77216-0.90112 155.66848-1.39264 68.99712-0.65536 141.27104 6.41024 203.38688 38.83008 48.08704 25.10848 108.2368 68.46464 96.44032 131.31776zM409.47712 548.39296c-52.736 31.55968-102.99392 44.83072-152.49408 40.28416-44.91264 0.94208-90.4192-12.16512-137.40032-40.28416C2.6624 478.4128-27.19744 358.1952 43.64288 242.52416c79.1552-129.18784 147.29216-188.43648 220.8768-179.0976 73.58464-9.35936 141.7216 49.88928 220.8768 179.07712 70.8608 115.69152 41.00096 235.9296-75.91936 305.88928z m-145.1008-261.75488c-54.76352 1.1264-93.67552 33.71008-95.90784 93.61408-2.4576 65.8432 35.96288 100.39296 96.07168 103.2192 60.1088-2.82624 98.52928-37.376 96.07168-103.2192-2.2528-60.0064-41.30816-92.63104-96.23552-93.61408z"  horiz-adv-x="1024" />

    
    <glyph glyph-name="time1" unicode="&#59104;" d="M834.6 138.5h-59.5V244.7c0 14.1-11.5 25.7-25.7 25.7h-8.7c-14.1 0-25.7-11.5-25.7-25.7v-128.5c-0.1-1.1-0.2-2.2-0.2-3.4v-8.7c0-14.1 11.5-25.7 25.7-25.7h94.1c14.1 0 25.7 11.5 25.7 25.7v8.7c-0.1 14.1-11.6 25.7-25.7 25.7zM745.5 367c-119 0-215.5-96.5-215.5-215.5S626.5-64 745.5-64 961 32.5 961 151.5 864.5 367 745.5 367z m110-325.5c-29.4-29.4-68.4-45.5-110-45.5s-80.6 16.2-110 45.5S590 110 590 151.5s16.2 80.6 45.5 110S704 307 745.5 307s80.6-16.2 110-45.5S901 193 901 151.5s-16.2-80.6-45.5-110zM458 37H125V491.3h727V447c0-16.5 13.5-30 30-30s30 13.5 30 30V716c0 33-27 60-60 60H706V802c0 16.5-13.5 30-30 30s-30-13.5-30-30v-26H333V802c0 16.5-13.5 30-30 30s-30-13.5-30-30v-26H125c-33 0-60-27-60-60v-679c0-33 27-60 60-60h333c16.5 0 30 13.5 30 30s-13.5 30-30 30zM273 716v-22c0-16.5 13.5-30 30-30s30 13.5 30 30v22h313v-22c0-16.5 13.5-30 30-30s30 13.5 30 30v22h146v-164.7H125V716h148zM330.1 391.4c0 5.5-4.5 10-10 10h-84.4c-5.5 0-10-4.5-10-10V307c0-5.5 4.5-10 10-10h84.4c5.5 0 10 4.5 10 10v84.4zM320.1 218.1h-84.4c-5.5 0-10-4.5-10-10v-84.5c0-5.5 4.5-10 10-10h84.4c5.5 0 10 4.5 10 10v84.5c0 5.5-4.5 10-10 10zM446.3 401.4c-5.5 0-10-4.5-10-10V307c0-5.5 4.5-10 10-10h84.4c5.5 0 10 4.5 10 10v84.5c0 5.5-4.5 10-10 10h-84.4zM446.3 218.1c-5.5 0-10-4.5-10-10v-84.5c0-5.5 4.5-10 10-10h57.1c-1.6 10.7-2.5 21.7-2.5 32.8 0 25.1 4.3 49.2 12.2 71.6h-66.8z"  horiz-adv-x="1024" />

    
    <glyph glyph-name="renqun1" unicode="&#58883;" d="M302.4 430.4c14.4 0 25.6 1.6 36.8 6.4-36.8 40-60.8 96-60.8 155.2 0 41.6 11.2 81.6 30.4 116.8h-6.4c-76.8 0-139.2-62.4-139.2-139.2s62.4-139.2 139.2-139.2zM838.4 35.200000000000045c0-14.4 0-46.4-46.4-46.4h-560c-46.4 0-46.4 32-46.4 46.4 0 179.2 147.2 326.4 326.4 326.4s326.4-147.2 326.4-326.4zM142.4 57.60000000000002H70.4c-25.6 0-46.4 20.8-46.4 46.4C24 259.20000000000005 148.8 384 302.4 384c20.8 0 41.6-3.2 62.4-6.4-124.8-54.4-216-174.4-222.4-320zM744 593.6c0 41.6-11.2 81.6-30.4 116.8h6.4c76.8 0 139.2-62.4 139.2-139.2S796.8 432 720 432c-11.2 0-25.6 4.8-36.8 6.4 38.4 38.4 60.8 94.4 60.8 155.2zM1000 104c0-25.6-20.8-46.4-46.4-46.4h-72c-9.6 144-97.6 265.6-224 318.4 20.8 4.8 41.6 6.4 62.4 6.4 155.2 1.6 280-123.2 280-278.4zM340.464294 522.574022a185.6 185.6 0 1 1 342.944082 142.05209 185.6 185.6 0 1 1-342.944082-142.05209Z"  horiz-adv-x="1024" />

    
    <glyph glyph-name="weibiaoti-" unicode="&#58902;" d="M877.689404 895.993549H146.297694c-80.828525 0-146.304145-65.540129-146.304145-146.304145v-731.456218c0-80.764017 65.46917-146.239637 146.310596-146.239637h731.398161c80.822074 0 146.304145 65.475621 146.304145 146.239637V749.6958549999999C1023.993549 830.453421 958.53083 895.993549 877.689404 895.993549zM865.181303 327.39423c0-94.09782-89.640318-170.365629-200.239285-170.36563H359.057982c-110.605418 0-200.239284 76.267809-200.239285 170.36563v200.168325c0 94.09782 89.633867 170.37208 200.239285 170.37208h305.884036c110.605418 0 200.239284-76.267809 200.239285-170.37208v-200.168325zM276.545798 70.05891399999996l152.735593 94.394557-101.825879 3.180245zM305.006728 504.146151H570.0572v-45.1556H305.006728zM305.006728 376.87831700000004h391.544211v-45.155601H305.006728z"  horiz-adv-x="1024" />

    
    <glyph glyph-name="dbaudit" unicode="&#59534;" d="M504.32 309.76c75.776 0 138.24 31.744 138.24 71.68 0 10.24-4.096 20.48-11.776 29.696-20.48-24.576-70.656-41.984-125.44-41.984-56.32 0-104.96 17.92-125.44 41.984-7.68-9.216-11.264-19.456-11.264-29.696-1.024-39.424 60.416-71.68 135.68-71.68M506.88 553.984c79.36 0 143.36-33.28 143.36-74.24s-64-74.24-143.36-74.24-143.36 33.28-143.36 74.24 64 74.24 143.36 74.24m0-280.064c-58.88 0-110.08 19.456-133.12 44.544-7.68-9.216-11.264-19.456-11.264-29.696 0-40.96 64-74.24 143.36-74.24s143.36 33.28 143.36 74.24c0 10.24-4.096 20.48-11.776 29.696-20.48-25.6-71.68-44.544-130.56-44.544M919.04 399.36c-5.12 5.12-11.776 7.68-19.456 7.68h-89.6c-12.8 148.48-132.096 268.8-277.504 283.136h-5.12V773.12c0 16.384-10.24 29.696-25.6 29.696s-25.6-11.264-25.6-29.696v-82.944c-2.56 0-4.096 0-5.12-1.024h-2.56c-6.144-1.024-14.336-1.024-22.016-2.56h-7.68c-1.024 0-3.584 0-6.144-1.024h-1.024c-1.024 0-2.56 0-4.096-1.024-1.024 0-2.56 0-2.56-1.024h-2.56c-3.584-2.56-7.68-2.56-11.776-3.584l-1.024-1.536c-20.48-6.144-38.4-14.336-55.296-23.04-1.024 0-2.56-1.024-4.096-2.56-1.024 0-1.024-1.024-2.56-1.024-1.024-1.024-4.096-1.024-5.12-2.56l-5.632-4.096c-1.024-1.024-2.56-1.024-4.096-2.56-79.36-51.2-130.56-138.24-139.264-234.496H122.88c-16.384 0-29.696-10.24-29.696-25.6s11.264-25.6 29.696-25.6h71.68c11.264-152.064 132.096-274.944 281.6-287.744v-70.656c0-16.384 10.24-29.696 25.6-29.696s25.6 11.776 25.6 29.696v69.12c149.504 12.8 271.36 135.68 282.624 288.256h88.064c15.36 0 26.624 11.264 26.624 24.576 1.024 6.144-0.512 13.824-5.632 18.944zM501.76 635.904c142.336 0 256-116.736 256-260.096s-115.2-260.096-256-260.096c-142.336 0-256 116.736-256 259.584s115.2 260.608 256 260.608z"  horiz-adv-x="1024" />

    
    <glyph glyph-name="dbsshujukubeifenDBS" unicode="&#59558;" d="M589.417367 895.99963a510.621451 510.621451 0 0 1-271.482709-77.763916l47.13995-75.35392A422.192546 422.192546 0 1 0 193.031793 536.430016l126.279864-47.139949-83.269911 263.569717L0 609.719938l111.48388-41.633956A511.99945 511.99945 0 1 1 589.417367 895.99963zM747.696197 601.805946a375.396597 375.396597 0 0 1-154.149835 29.591968c-120.77387 0-210.923773-46.10795-210.923773-87.053906s89.805904-86.709907 210.235774-86.709907a375.741596 375.741596 0 0 1 154.837834 29.935968c34.409963 16.515982 56.08594 37.849959 56.08594 57.117938 0 19.612979-20.989977 41.634955-56.08594 57.117939z m58.494937-370.579602v91.526902a184.429802 184.429802 0 0 0-45.074952-28.902969 407.396562 407.396562 0 0 0-167.913819-34.408963 333.762641 333.762641 0 0 0-209.891775 59.182936v-92.214901c4.129996-40.257957 92.9029-84.299909 211.267773-84.299909 118.365873 0 206.450778 44.385952 211.612773 84.989909v4.126995zM806.191134 389.850174v93.2469a184.429802 184.429802 0 0 0-45.074952-28.902969 407.396562 407.396562 0 0 0-167.913819-34.408963 333.762641 333.762641 0 0 0-209.891775 59.182936v-92.214901c4.129996-40.257957 92.9029-84.299909 211.267773-84.299909 118.365873 0 206.450778 44.385952 211.612773 84.987908v4.129996z"  horiz-adv-x="1101" />

    
    <glyph glyph-name="shouye" unicode="&#59033;" d="M1073.881601 508.315893a54.70156 54.70156 0 0 0-27.35078 6.837695l-462.364933 268.037642a44.650148 44.650148 0 0 1-44.171509 0L77.561069 515.495472A53.812659 53.812659 0 0 0 6.859303 530.538401c-14.222406 21.470362-5.401779 49.504911 17.914761 63.043548l510.092044 295.183291a55.316952 55.316952 0 0 0 54.701559 0l510.228798-295.320045c23.111409-13.67539 31.863658-41.02617 17.914761-62.564909a51.898105 51.898105 0 0 0-43.829625-22.564393zM848.306045-128H275.9226a129.916204 129.916204 0 0 0-129.916204 129.916204V458.332343a47.863865 47.863865 0 1 0 95.727729 0v-456.142631a34.188475 34.188475 0 0 1 34.188475-34.188475h572.383445a34.188475 34.188475 0 0 1 34.188474 34.188475V458.332343a47.863865 47.863865 0 1 0 95.72773 0v-456.142631a129.916204 129.916204 0 0 0-129.916204-130.189712zM355.171484 435.97308m47.863865 0l0 0q47.863865 0 47.863865-47.863865l0-59.351192q0-47.863865-47.863865-47.863865l0 0q-47.863865 0-47.863865 47.863865l0 59.351192q0 47.863865 47.863865 47.863865ZM673.329431 435.97308m47.863864 0l0 0q47.863865 0 47.863865-47.863865l0-59.351192q0-47.863865-47.863865-47.863865l0 0q-47.863865 0-47.863864 47.863865l0 59.351192q0 47.863865 47.863864 47.863865ZM562.080134 68.58373c-79.727523 0-142.155678 51.419466-142.155678 116.924584a41.02617 41.02617 0 1 0 82.052339 0c0-16.410468 25.709733-34.872244 60.103339-34.872245s60.171716 18.461776 60.171715 34.872245a41.02617 41.02617 0 0 0 82.05234 0c0-65.641872-62.428155-116.924584-142.224055-116.924584z"  horiz-adv-x="1124" />

    
    <glyph glyph-name="icon-liucheng" unicode="&#58926;" d="M299.5712 748.8l-23.9616 30.6176a481.7408 481.7408 0 0 1-238.5408-491.7248 37.376 37.376 0 0 1 43.7248-30.72 39.2192 39.2192 0 0 1 31.8976 44.4928 404.7872 404.7872 0 0 0 200.704 411.136l-18.8928 33.3824 23.808-30.72-18.7392 33.536zM643.0208-20.940799999999967a406.7328 406.7328 0 0 0-256.8704-1.6896 38.4 38.4 0 1 1-23.9616-73.0112 479.5904 479.5904 0 0 1 149.8624-23.8592c53.2992 0 105.728 8.704 155.904 25.856a38.4512 38.4512 0 0 1-24.9344 72.704zM776.0896 762.5216a38.2976 38.2976 0 0 1-53.1968-10.9056 38.3488 38.3488 0 0 1 10.9056-53.1968 403.2 403.2 0 0 0 179.8144-378.7264c-0.6144-5.7344-1.2288-11.52-2.0992-17.152a38.4 38.4 0 1 1 75.8784-11.52 473.1904 473.1904 0 0 1 5.12 69.9392 479.744 479.744 0 0 1-216.4224 401.5616zM530.5856 793.6512m-93.8496 0a93.8496 93.8496 0 1 1 187.6992 0 93.8496 93.8496 0 1 1-187.6992 0ZM843.1104 179.20000000000005a93.8496 93.8496 0 1 1 0-187.7504 93.8496 93.8496 0 0 1 0 187.7504zM177.7664 169.52319999999997a93.8496 93.8496 0 1 1 0-187.7504 93.8496 93.8496 0 0 1 0 187.7504z"  horiz-adv-x="1024" />

    
    <glyph glyph-name="duanxin" unicode="&#58928;" d="M814.933333-18.666667H214.4c-54.933333 0-99.733333 44.8-99.733333 99.733334V681.6c0 54.933333 44.8 99.733333 99.733333 99.733333h600.533333c54.933333 0 99.733333-44.8 99.733334-99.733333v-600.533333c0-54.933333-44.8-99.733333-99.733334-99.733334zM704 400c0-77.333333-64-141.866667-148.8-156.8-12.266667-2.133333-91.2-41.066667-96.533333-40.533333-9.6 0.533333 23.466667 40 14.4 42.133333C391.466667 261.333333 330.666667 324.8 330.666667 400c0 88.533333 83.733333 160 186.666666 160s186.666667-71.466667 186.666667-160zM442.666667 405.333333m-26.666667 0a26.666667 26.666667 0 1 1 53.333333 0 26.666667 26.666667 0 1 1-53.333333 0ZM517.333333 405.333333m-26.666666 0a26.666667 26.666667 0 1 1 53.333333 0 26.666667 26.666667 0 1 1-53.333333 0ZM592 405.333333m-26.666667 0a26.666667 26.666667 0 1 1 53.333334 0 26.666667 26.666667 0 1 1-53.333334 0Z"  horiz-adv-x="1024" />

    
    <glyph glyph-name="dengluyonghu" unicode="&#58888;" d="M620.423529-121.976471H403.576471c-198.776471 0-355.388235 0-355.388236 96.376471V-7.529412c0 186.729412 156.611765 343.341176 355.388236 343.341177h216.847058c198.776471 0 355.388235-156.611765 355.388236-343.341177v-18.070588c0-96.376471-168.658824-96.376471-355.388236-96.376471zM234.917647 612.894118C234.917647 763.482353 361.411765 889.976471 512 889.976471c150.588235 0 277.082353-126.494118 277.082353-277.082353 0-150.588235-126.494118-277.082353-277.082353-277.082353-150.588235 0-277.082353 126.494118-277.082353 277.082353z"  horiz-adv-x="1024" />

    
    <glyph glyph-name="xinxi" unicode="&#58914;" d="M524.2 857.1c-268.4 0-486-217.6-486-486s217.6-486 486-486 486 217.6 486 486-217.5 486-486 486zM398.7 347.4c-13 0-23.6 10.5-23.6 23.6 0 13 10.5 23.6 23.6 23.6 13 0 23.6-10.5 23.6-23.6 0-13-10.6-23.6-23.6-23.6z m125.2 0c-13 0-23.6 10.5-23.6 23.6 0 13 10.5 23.6 23.6 23.6s23.6-10.5 23.6-23.6c0-13-10.5-23.6-23.6-23.6z m126.5 0c-13 0-23.6 10.5-23.6 23.6 0 13 10.5 23.6 23.6 23.6 13 0 23.6-10.5 23.6-23.6 0-13-10.6-23.6-23.6-23.6zM524.2 577c-129.6 0-234.8-92.3-234.8-206 0-59 28.4-112.2 73.6-149.7-7.9-10-16.8-19.3-26.2-27.9-9.9-9-4.5-25.7 8.9-27.1 7.8-0.8 15.9-1.2 23.9-1.2 45.8 0 154.1-0.1 154.5-0.1C653.8 165 759 257.3 759 370.9 759.1 484.8 653.9 577 524.2 577zM398.5 347.5c-13 0-23.5 10.5-23.5 23.5s10.5 23.5 23.5 23.5S422 384 422 371s-10.5-23.5-23.5-23.5z m125.8 0c-13 0-23.5 10.5-23.5 23.5s10.5 23.5 23.5 23.5 23.5-10.5 23.5-23.5-10.5-23.5-23.5-23.5z m125.6 0.1c-8.4 0-16.2 4.5-20.3 11.7-4.2 7.2-4.2 16.3 0 23.5 4.2 7.2 11.9 11.7 20.3 11.7 13 0 23.5-10.5 23.5-23.5 0-12.9-10.5-23.4-23.5-23.4z"  horiz-adv-x="1024" />

    
    <glyph glyph-name="wancheng" unicode="&#58890;" d="M511.950005 383.950005m-447.956254 0a447.956254 447.956254 0 1 1 895.912508 0 447.956254 447.956254 0 1 1-895.912508 0ZM458.95518 246.363441L289.271751 416.04687c-11.698858 11.698858-30.697002 11.698858-42.39586 0s-11.698858-30.697002 0-42.395859l169.683429-169.68343c11.698858-11.698858 30.697002-11.698858 42.39586 0 11.798848 11.598867 11.798848 30.597012 0 42.39586zM777.62406 563.732448c-11.698858 11.698858-30.697002 11.698858-42.39586 0L424.158578 252.562836c-11.698858-11.698858-11.698858-30.697002 0-42.39586s30.697002-11.698858 42.39586 0l311.069622 311.069622c11.798848 11.798848 11.798848 30.796992 0 42.49585z"  horiz-adv-x="1024" />

    
    <glyph glyph-name="quanyi" unicode="&#58884;" d="M512-128C229.233778-128 0 101.233778 0 384S229.233778 896 512 896s512-229.233778 512-512-229.233778-512-512-512z m178.204444 389.831111l18.005334 5.077333 0.654222 0.170667a44.686222 44.686222 0 0 1 25.671111 21.020445c5.632 9.671111 7.68 21.575111 4.977778 32.938666l-8.334222 36.849778 23.623111 24.817778 1.024 0.668444c7.850667 9.159111 12.174222 19.683556 12.174222 31.402667 0 11.733333-4.323556 22.926222-12.174222 31.232l-24.177778 26.638222-0.824889 1.038222 8.632889 35.143111a45.070222 45.070222 0 0 1-4.977778 32.753778 43.818667 43.818667 0 0 1-25.671111 21.020445l-35.328 11.178666-9.656889 34.588445c-3.299556 10.88-10.666667 20.721778-20.508444 26.339555a43.178667 43.178667 0 0 1-32.440889 4.579556l-35.982222-8.120889-25.187556 25.059556A44.885333 44.885333 0 0 1 519.054222 668.444444c-11.52 0-22.314667-4.408889-30.648889-12.231111l-25.969777-24.803555-1.024-0.853334-34.304 8.675556c-10.496 2.759111-21.290667 1.038222-30.819556-3.726222l-1.507556-0.853334c-10.126222-5.617778-17.322667-15.459556-20.622222-26.339555l-10.666666-35.441778-33.649778-10.325333h-0.668445c-11.036444-3.356444-19.968-10.88-25.671111-21.020445-5.688889-9.841778-7.68-21.575111-4.977778-32.753777l7.978667-36.124445 0.369778-0.668444-23.637333-24.931556-1.024-0.668444A47.630222 47.630222 0 0 1 270.222222 414.776889c0-11.662222 4.323556-22.243556 11.989334-31.032889l24.291555-26.652444 0.668445-0.853334-8.647112-35.128889a48.497778 48.497778 0 0 1 4.024889-31.416889l1.024-1.521777a44.017778 44.017778 0 0 1 25.6-21.020445l18.346667-5.930666-72.32-118.186667a14.08 14.08 0 0 1 4.494222-19.370667 13.937778 13.937778 0 0 1 11.52-1.834666l85.76 20.352 20.152889-88.419556c1.678222-7.452444 9.358222-12.586667 16.967111-10.695111 3.655111 0.981333 6.656 3.541333 8.632889 6.286222l72.632889 118.798222c7.011556-4.764444 15.288889-6.968889 23.637333-6.968889 8.334222 0 16.668444 2.204444 23.623111 6.968889l72.632889-118.798222c1.976889-2.688 4.977778-5.262222 8.817778-6.286222 7.495111-1.891556 15.160889 3.242667 16.668445 10.695111l20.152888 88.419556 86.243556-20.337778c3.655111-1.052444 7.68-0.497778 11.335111 1.820444 6.357333 4.096 8.334222 12.714667 4.309333 19.370667l-72.561777 118.798222zM519.111111 311.822222c-55.054222 0-99.740444 45.454222-99.740444 101.617778 0 56.163556 44.686222 101.560889 99.740444 101.560889s99.740444-45.468444 99.740445-101.617778c0-56.163556-44.686222-101.560889-99.740445-101.560889z"  horiz-adv-x="1024" />

    
    <glyph glyph-name="fabucuxiao" unicode="&#58885;" d="M1024 72c0-110-90-200-200-200H200C90-128 0-38 0 72V696C0 806 90 896 200 896h624c110 0 200-90 200-200v-624zM823.162 413.244l-54.431 257.2c-0.682 2.043-1.706 4.09-3.063 5.447 1.356-72.469 0.337-144.938 0.675-217.741-2.037-18.369 4.432-38.1-3.731-55.793-78.594-83.013-159.906-163.644-239.519-245.638-9.525-12.925-22.794-22.112-37.766-27.213l61.578-40.493c29.594-19.382 69.406-10.544 88.45 19.731l186.1 295.318c1.707 2.716 2.389 6.119 1.707 9.182zM584.325 620.775c13.612 13.95 31.3 20.756 48.993 20.756 17.351 0 35.044-6.806 48.656-20.756 26.875-27.215 26.875-71.788 0-99.003a67.999 67.999 0 0 0-97.649 0c-26.869 27.215-26.869 71.788 0 99.003zM747.638 407.8c2.381 2.381 3.399 5.444 3.399 8.51V679.628c0 3.063-1.362 6.128-3.399 8.169-2.382 2.384-5.101 3.403-8.169 3.403H481.247c-3.066 0-6.125-1.359-8.169-3.403L229.822 439.781c-24.831-25.519-24.831-67.031 0-92.537l184.06-187.801c25.175-25.519 65.663-25.519 90.494 0L747.638 407.8zM402.997 289.744l-24.838 25.175c9.525 6.462 17.354 13.269 27.56 23.475l22.456 22.456-35.387 35.382c-10.888 10.887-17.35 16.331-26.878 23.134l25.178 25.175c6.462-9.869 11.91-16.328 22.794-27.215l35.384-35.382 12.247 12.244 5.443 24.156-25.859 26.197c-10.884 10.55-17.35 16.334-27.215 22.794l24.837 24.837c6.803-9.528 12.584-15.994 23.475-26.875l16.672-16.672 15.647 90.156c3.063 17.009 4.081 25.856 4.762 33.685l25.856-25.863c-3.406-6.797-5.443-13.266-8.844-31.978l-25.515-112.947 112.272 26.197c17.35 3.403 25.175 5.438 31.975 8.841l25.862-25.856c-6.8-0.337-18.375-1.7-34.024-4.419l-89.819-15.987 16.676-16.672c10.887-10.894 17.688-16.675 27.219-23.475l-24.844-24.838c-6.801 9.525-12.926 16.669-23.469 27.213l-25.52 25.859-24.834-5.791-11.906-11.9 35.381-35.381c10.546-10.55 17.353-16.338 26.878-22.794l-24.841-24.837c-6.8 9.524-12.925 16.324-23.131 26.875l-35.381 35.043-22.453-22.449c-11.569-11.232-17.01-17.701-23.816-27.563z m0 0"  horiz-adv-x="1024" />

    
    <glyph glyph-name="xinxi1" unicode="&#58993;" d="M999.042 656.204C978.993 765.487 893.481 851.01 784.191 871.053 695.503 887.321 606.834 895.634 518.166 896h-12.335c-88.667-0.366-177.343-8.679-266.019-24.947C130.517 851.01 45.001 765.487 24.954 656.204c-16.376-89.275-24.693-178.55-24.954-267.826v-8.734c0.26-89.276 8.577-178.551 24.954-267.827 20.047-109.284 105.563-194.811 214.858-214.86 90.729-16.628 181.458-24.954 272.183-24.954 90.731 0 181.457 8.326 272.196 24.954 109.289 20.049 194.802 105.576 214.851 214.859 16.641 90.741 24.953 181.452 24.953 272.194 0 90.726-8.312 181.453-24.953 272.194zM653.998 458.396c-35.295 64.941-32.334 143.895 7.716 206.019a318.708 318.708 0 0 1-143.199 35.928l-4.21-0.085c-110.009-0.2-212.101-57.127-269.895-150.474-57.793-93.342-63.085-209.872-13.975-308.051 0.148-0.353 0.148-0.777 0-1.123l-28.915-82.266c-5.414-15.36-2.192-32.429 8.423-44.795 10.632-12.358 27.059-18.133 43.1-15.162l90.796 17.491a1.339 1.339 0 0 0 1.05 0 316.812 316.812 0 0 1 170.03-49.823c9.471 0 19.37 0.435 29.348 1.312 151.576 13.729 272.018 132.854 287.031 283.883v1.137c-74.056 0.446-142.007 41.071-177.3 106.009z m-268-156.791l0.259 0.096c-10.234-0.053-18.643 8.063-18.929 18.269a17.422 17.422 0 0 0 4.86 12.859 17.538 17.538 0 0 0 12.671 5.402h1.141c10.147 0 18.361-8.2 18.361-18.309-0.004-10.113-8.216-18.317-18.363-18.317z m253.107 0.093h-63.542l-8.757-50.352c-1.772-9.945-11.285-16.57-21.261-14.816-9.975 1.772-16.624 11.265-14.854 21.197l7.805 43.708h-80.015l-8.772-50.345c-1.759-9.95-11.275-16.578-21.244-14.815-9.976 1.758-16.628 11.246-14.858 21.197l28.739 162.572H385.112c-10.134 0-18.36 8.201-18.36 18.31s8.226 18.309 18.36 18.309h63.542l8.771 50.348c1.76 9.938 11.275 16.578 21.246 14.815 9.974-1.759 16.626-11.252 14.855-21.199l-7.792-43.706h80.015l8.756 50.346c1.822 9.962 11.399 16.576 21.384 14.766h0.447c9.982-1.77 16.647-11.271 14.888-21.231L600.532 442.59a17.402 17.402 0 0 0-2.453-13.802l-16.031-90.471h57.048c10.135 0 18.362-8.188 18.362-18.31 0.008-10.124-8.218-18.309-18.353-18.309z m0.435 118.517h-1.919c-10.146 0-18.359 8.2-18.359 18.311 0 10.11 8.213 18.313 18.359 18.313h1.919c10.145 0 18.36-8.2 18.36-18.313-0.001-10.111-8.215-18.311-18.36-18.311zM479.095 415.894l-14.491-82.248h79.57l14.408 82.248zM664.528 662.661c-39.035-61.174-41.925-138.912-7.534-202.85 34.404-63.951 100.629-103.952 172.819-104.382 12.367 126.808-53.068 248.462-165.285 307.232z"  horiz-adv-x="1024" />

    
    <glyph glyph-name="huodong" unicode="&#58904;" d="M0 896h1024v-1024H0zM512 180.5824l-182.784-91.0336a21.3248 21.3248 0 0 0-30.6176 22.2464l30.08 201.984-143.0528 145.7152a21.3248 21.3248 0 0 0 11.6736 35.9936l201.3952 33.792 94.3872 181.0944a21.3248 21.3248 0 0 0 37.8368 0l94.3872-181.0944 201.3952-33.792a21.3248 21.3248 0 0 0 11.6736-35.9936l-143.0528-145.7152 30.08-201.984a21.3248 21.3248 0 0 0-30.592-22.272L512 180.608z"  horiz-adv-x="1024" />

    
    <glyph glyph-name="youjian" unicode="&#59001;" d="M512 384m-512 0a512 512 0 1 1 1024 0 512 512 0 1 1-1024 0ZM804.79 559.583a191.612 191.612 0 0 0-56.335-33.543 20.242 20.242 0 0 0 3.821-0.072 20.302 20.302 0 0 0 13.288-7.84 20.123 20.123 0 0 0 3.883-14.893 20.044 20.044 0 0 0-7.806-13.271l-128.609-97.195 128.521-128.522c7.479-7.917 7.32-20.347-0.347-28.074-7.688-7.724-20.116-7.953-28.079-0.526L600.525 368.246l-57.199-43.148c-15.328-10.737-35.733-10.737-51.063 0l-56.774 43.075-114.816-114.742c97.123 21.698 194.708-34.527 224.609-129.445h136.185c77.97 0.095 141.187 63.222 141.371 141.197V490.899a139.845 139.845 0 0 1-18.048 68.684zM403.064 392.841L274.457 489.96a19.912 19.912 0 0 0-7.827 13.282c-1.475 10.936 6.099 21.055 17.021 22.724a20.002 20.002 0 0 0 14.817-4.007l218.39-164.695h1.107c0.45-0.073 0.913-0.073 1.362 0L737.049 521.7c-94.861-29.422-196.574 18.422-234.313 110.398H341.02c-77.971-0.086-141.184-63.226-141.369-141.199v-225.716a139.773 139.773 0 0 1 19.578-71.494 192.304 192.304 0 0 0 54.801 42.724c-7.426 7.915-7.196 20.282 0.513 27.918l128.521 128.51zM545.282 123.985c-29.901 94.918-127.485 151.141-224.61 129.445l-17.703-17.701c-7.876-7.865-20.637-7.865-28.513 0l-0.511 0.594a192.208 192.208 0 0 1-54.716-42.549c25.373-43.2 71.701-69.744 121.791-69.79l204.262 0.001zM737.813 521.96a19.926 19.926 0 0 0 10.644 3.749 191.405 191.405 0 0 1 56.333 33.533c-24.857 44.842-72.05 72.723-123.322 72.857H502.734c29.621-71.869 99.716-118.747 177.455-118.648a191.46 191.46 0 0 1 57.624 8.509z"  horiz-adv-x="1024" />

    
    <glyph glyph-name="xinxi2" unicode="&#59006;" d="M512 384m-512 0a512 512 0 1 1 1024 0 512 512 0 1 1-1024 0ZM653.998 458.396c-35.295 64.941-32.334 143.896 7.716 206.02a318.708 318.708 0 0 1-143.199 35.928l-4.21-0.085c-110.009-0.2-212.101-57.127-269.895-150.474-57.793-93.342-63.085-209.872-13.975-308.051 0.148-0.354 0.148-0.777 0-1.123l-28.915-82.267c-5.414-15.359-2.192-32.429 8.423-44.795 10.632-12.357 27.059-18.133 43.1-15.162l90.796 17.491a1.33 1.33 0 0 0 1.05 0 316.812 316.812 0 0 1 170.03-49.823c9.471 0 19.37 0.436 29.348 1.313 151.576 13.729 272.019 132.854 287.031 283.883v1.137c-74.056 0.445-142.007 41.07-177.3 106.008z m-268-156.792l0.259 0.097c-10.233-0.053-18.643 8.063-18.929 18.269a17.426 17.426 0 0 0 4.859 12.859 17.541 17.541 0 0 0 12.672 5.402H386c10.146 0 18.361-8.2 18.361-18.31-0.004-10.112-8.216-18.317-18.363-18.317z m253.107 0.094h-63.543l-8.757-50.353c-1.771-9.944-11.284-16.569-21.261-14.815-9.975 1.771-16.624 11.265-14.854 21.197l7.805 43.707H458.48l-8.771-50.345c-1.759-9.95-11.275-16.578-21.244-14.814-9.976 1.758-16.628 11.246-14.857 21.196l28.738 162.572h-57.233c-10.135 0-18.36 8.201-18.36 18.311 0 10.108 8.226 18.309 18.36 18.309h63.542l8.771 50.348c1.76 9.938 11.275 16.578 21.246 14.815 9.974-1.759 16.626-11.252 14.855-21.199l-7.792-43.706h80.015l8.756 50.346c1.822 9.962 11.399 16.576 21.384 14.766h0.447c9.982-1.77 16.646-11.271 14.888-21.231l-10.691-58.212a17.406 17.406 0 0 0-2.453-13.802l-16.031-90.471h57.048c10.135 0 18.362-8.188 18.362-18.311 0.006-10.123-8.22-18.308-18.355-18.308z m0.435 118.517h-1.919c-10.146 0-18.359 8.2-18.359 18.312 0 10.109 8.213 18.313 18.359 18.313h1.919c10.145 0 18.36-8.2 18.36-18.313-0.002-10.112-8.215-18.312-18.36-18.312zM479.095 415.894l-14.491-82.248h79.57l14.408 82.248zM664.528 662.661c-39.035-61.174-41.926-138.912-7.534-202.851 34.404-63.95 100.629-103.951 172.818-104.382 12.368 126.809-53.067 248.463-165.284 307.233z"  horiz-adv-x="1024" />

    
    <glyph glyph-name="dbsshujukubeifenDBS-copy" unicode="&#59560;" d="M589.417367 895.99963a510.621451 510.621451 0 0 1-271.482709-77.763916l47.13995-75.35392A422.192546 422.192546 0 1 0 193.031793 536.430016l126.279864-47.139949-83.269911 263.569717L0 609.719938l111.48388-41.633956A511.99945 511.99945 0 1 1 589.417367 895.99963zM747.696197 601.805946a375.396597 375.396597 0 0 1-154.149835 29.591968c-120.77387 0-210.923773-46.10795-210.923773-87.053906s89.805904-86.709907 210.235774-86.709907a375.741596 375.741596 0 0 1 154.837834 29.935968c34.409963 16.515982 56.08594 37.849959 56.08594 57.117938 0 19.612979-20.989977 41.634955-56.08594 57.117939z m58.494937-370.579602v91.526902a184.429802 184.429802 0 0 0-45.074952-28.902969 407.396562 407.396562 0 0 0-167.913819-34.408963 333.762641 333.762641 0 0 0-209.891775 59.182936v-92.214901c4.129996-40.257957 92.9029-84.299909 211.267773-84.299909 118.365873 0 206.450778 44.385952 211.612773 84.989909v4.126995zM806.191134 389.850174v93.2469a184.429802 184.429802 0 0 0-45.074952-28.902969 407.396562 407.396562 0 0 0-167.913819-34.408963 333.762641 333.762641 0 0 0-209.891775 59.182936v-92.214901c4.129996-40.257957 92.9029-84.299909 211.267773-84.299909 118.365873 0 206.450778 44.385952 211.612773 84.987908v4.129996z"  horiz-adv-x="1101" />

    
    <glyph glyph-name="youjian1-copy" unicode="&#59561;" d="M716.8 896L307.2 896C138.24 896 0 757.76 0 588.8l0-409.6c0-168.96 138.24-307.2 307.2-307.2l409.6 0c168.96 0 307.2 138.24 307.2 307.2L1024 588.8C1024 757.76 885.76 896 716.8 896zM281.6 614.4l460.8 0c15.36 0 25.6-5.12 35.84-10.24L512 368.64 245.76 604.1600000000001C256 609.28 266.24 614.4 281.6 614.4zM204.8 230.39999999999998L204.8 537.6c0 15.36 5.12 30.72 10.24 40.96L409.6 409.6l-194.56-215.04C209.92 204.79999999999995 204.8 215.03999999999996 204.8 230.39999999999998zM742.4 153.60000000000002l-460.8 0c-15.36 0-30.72 5.12-40.96 10.24L435.2 384 501.76 332.79999999999995c5.12-5.12 10.24-5.12 10.24-5.12 5.12 0 10.24 0 10.24 5.12l61.44 56.32 194.56-220.16C773.12 158.72000000000003 757.76 153.60000000000002 742.4 153.60000000000002zM819.2 230.39999999999998c0-15.36-5.12-25.6-10.24-35.84L614.4 409.6l189.44 168.96C814.08 568.3199999999999 819.2 552.96 819.2 537.6L819.2 230.39999999999998z"  horiz-adv-x="1024" />

    
    <glyph glyph-name="wancheng-copy-copy" unicode="&#59567;" d="M511.950005 383.95000500000003m-447.956254 0a447.956254 447.956254 0 1 1 895.912508 0 447.956254 447.956254 0 1 1-895.912508 0ZM458.95518 246.36344099999997L289.271751 416.04687c-11.698858 11.698858-30.697002 11.698858-42.39586 0s-11.698858-30.697002 0-42.395859l169.683429-169.68343c11.698858-11.698858 30.697002-11.698858 42.39586 0 11.798848 11.598867 11.798848 30.597012 0 42.39586zM777.62406 563.732448c-11.698858 11.698858-30.697002 11.698858-42.39586 0L424.158578 252.56283599999995c-11.698858-11.698858-11.698858-30.697002 0-42.39586s30.697002-11.698858 42.39586 0l311.069622 311.069622c11.798848 11.798848 11.798848 30.796992 0 42.49585z"  horiz-adv-x="1024" />

    
    <glyph glyph-name="tubiaozhizuomoban--copy-copy" unicode="&#59568;" d="M512 382m-448 0a448 448 0 1 1 896 0 448 448 0 1 1-896 0ZM512 384m-253.15 0a253.15 253.15 0 1 1 506.3 0 253.15 253.15 0 1 1-506.3 0ZM512 384m-203.07 0a203.07 203.07 0 1 1 406.14 0 203.07 203.07 0 1 1-406.14 0ZM622.12 399h-91.31a24.09 24.09 0 0 1-11.46 7.92V535.78a6 6 0 0 1-6 6h-2.81a6 6 0 0 1-6-6v-128.93a24.06 24.06 0 1 1 26.19-38.08h91.49a6 6 0 0 1 6 6V393a6 6 0 0 1-6.1 6z"  horiz-adv-x="1024" />

    
    <glyph glyph-name="xinxi1-copy-copy" unicode="&#59569;" d="M999.042 656.204C978.993 765.487 893.481 851.01 784.191 871.053 695.503 887.321 606.834 895.634 518.166 896h-12.335c-88.667-0.366-177.343-8.679-266.019-24.947C130.517 851.01 45.001 765.487 24.954 656.204c-16.376-89.275-24.693-178.55-24.954-267.826v-8.734c0.26-89.276 8.577-178.551 24.954-267.827 20.047-109.284 105.563-194.811 214.858-214.86 90.729-16.628 181.458-24.954 272.183-24.954 90.731 0 181.457 8.326 272.196 24.954 109.289 20.049 194.802 105.576 214.851 214.859 16.641 90.741 24.953 181.452 24.953 272.194 0 90.726-8.312 181.453-24.953 272.194zM653.998 458.396c-35.295 64.941-32.334 143.895 7.716 206.019a318.708 318.708 0 0 1-143.199 35.928l-4.21-0.085c-110.009-0.2-212.101-57.127-269.895-150.474-57.793-93.342-63.085-209.872-13.975-308.051 0.148-0.353 0.148-0.777 0-1.123l-28.915-82.266c-5.414-15.36-2.192-32.429 8.423-44.795 10.632-12.358 27.059-18.133 43.1-15.162l90.796 17.491a1.339 1.339 0 0 0 1.05 0 316.812 316.812 0 0 1 170.03-49.823c9.471 0 19.37 0.435 29.348 1.312 151.576 13.729 272.018 132.854 287.031 283.883v1.137c-74.056 0.446-142.007 41.071-177.3 106.009z m-268-156.791l0.259 0.096c-10.234-0.053-18.643 8.063-18.929 18.269a17.422 17.422 0 0 0 4.86 12.859 17.538 17.538 0 0 0 12.671 5.402h1.141c10.147 0 18.361-8.2 18.361-18.309-0.004-10.113-8.216-18.317-18.363-18.317z m253.107 0.093h-63.542l-8.757-50.352c-1.772-9.945-11.285-16.57-21.261-14.816-9.975 1.772-16.624 11.265-14.854 21.197l7.805 43.708h-80.015l-8.772-50.345c-1.759-9.95-11.275-16.578-21.244-14.815-9.976 1.758-16.628 11.246-14.858 21.197l28.739 162.572H385.112c-10.134 0-18.36 8.201-18.36 18.31s8.226 18.309 18.36 18.309h63.542l8.771 50.348c1.76 9.938 11.275 16.578 21.246 14.815 9.974-1.759 16.626-11.252 14.855-21.199l-7.792-43.706h80.015l8.756 50.346c1.822 9.962 11.399 16.576 21.384 14.766h0.447c9.982-1.77 16.647-11.271 14.888-21.231L600.532 442.59a17.402 17.402 0 0 0-2.453-13.802l-16.031-90.471h57.048c10.135 0 18.362-8.188 18.362-18.31 0.008-10.124-8.218-18.309-18.353-18.309z m0.435 118.517h-1.919c-10.146 0-18.359 8.2-18.359 18.311 0 10.11 8.213 18.313 18.359 18.313h1.919c10.145 0 18.36-8.2 18.36-18.313-0.001-10.111-8.215-18.311-18.36-18.311zM479.095 415.894l-14.491-82.248h79.57l14.408 82.248zM664.528 662.6610000000001c-39.035-61.174-41.925-138.912-7.534-202.85 34.404-63.951 100.629-103.952 172.819-104.382 12.367 126.808-53.068 248.462-165.285 307.232z"  horiz-adv-x="1024" />

    
    <glyph glyph-name="quanyi-copy-copy" unicode="&#59570;" d="M512-128C229.233778-128 0 101.23377800000003 0 384S229.233778 896 512 896s512-229.233778 512-512-229.233778-512-512-512z m178.204444 389.831111l18.005334 5.077333 0.654222 0.170667a44.686222 44.686222 0 0 1 25.671111 21.020445c5.632 9.671111 7.68 21.575111 4.977778 32.938666l-8.334222 36.849778 23.623111 24.817778 1.024 0.668444c7.850667 9.159111 12.174222 19.683556 12.174222 31.402667 0 11.733333-4.323556 22.926222-12.174222 31.232l-24.177778 26.638222-0.824889 1.038222 8.632889 35.143111a45.070222 45.070222 0 0 1-4.977778 32.753778 43.818667 43.818667 0 0 1-25.671111 21.020445l-35.328 11.178666-9.656889 34.588445c-3.299556 10.88-10.666667 20.721778-20.508444 26.339555a43.178667 43.178667 0 0 1-32.440889 4.579556l-35.982222-8.120889-25.187556 25.059556A44.885333 44.885333 0 0 1 519.054222 668.444444c-11.52 0-22.314667-4.408889-30.648889-12.231111l-25.969777-24.803555-1.024-0.853334-34.304 8.675556c-10.496 2.759111-21.290667 1.038222-30.819556-3.726222l-1.507556-0.853334c-10.126222-5.617778-17.322667-15.459556-20.622222-26.339555l-10.666666-35.441778-33.649778-10.325333h-0.668445c-11.036444-3.356444-19.968-10.88-25.671111-21.020445-5.688889-9.841778-7.68-21.575111-4.977778-32.753777l7.978667-36.124445 0.369778-0.668444-23.637333-24.931556-1.024-0.668444A47.630222 47.630222 0 0 1 270.222222 414.776889c0-11.662222 4.323556-22.243556 11.989334-31.032889l24.291555-26.652444 0.668445-0.853334-8.647112-35.128889a48.497778 48.497778 0 0 1 4.024889-31.416889l1.024-1.521777a44.017778 44.017778 0 0 1 25.6-21.020445l18.346667-5.930666-72.32-118.186667a14.08 14.08 0 0 1 4.494222-19.370667 13.937778 13.937778 0 0 1 11.52-1.834666l85.76 20.352 20.152889-88.419556c1.678222-7.452444 9.358222-12.586667 16.967111-10.695111 3.655111 0.981333 6.656 3.541333 8.632889 6.286222l72.632889 118.798222c7.011556-4.764444 15.288889-6.968889 23.637333-6.968889 8.334222 0 16.668444 2.204444 23.623111 6.968889l72.632889-118.798222c1.976889-2.688 4.977778-5.262222 8.817778-6.286222 7.495111-1.891556 15.160889 3.242667 16.668445 10.695111l20.152888 88.419556 86.243556-20.337778c3.655111-1.052444 7.68-0.497778 11.335111 1.820444 6.357333 4.096 8.334222 12.714667 4.309333 19.370667l-72.561777 118.798222zM519.111111 311.822222c-55.054222 0-99.740444 45.454222-99.740444 101.617778 0 56.163556 44.686222 101.560889 99.740444 101.560889s99.740444-45.468444 99.740445-101.617778c0-56.163556-44.686222-101.560889-99.740445-101.560889z"  horiz-adv-x="1024" />

    
    <glyph glyph-name="dbsshujukubeifenDBS-copy-copy-copy" unicode="&#59571;" d="M589.417367 895.99963a510.621451 510.621451 0 0 1-271.482709-77.763916l47.13995-75.35392A422.192546 422.192546 0 1 0 193.031793 536.430016l126.279864-47.139949-83.269911 263.569717L0 609.719938l111.48388-41.633956A511.99945 511.99945 0 1 1 589.417367 895.99963zM747.696197 601.805946a375.396597 375.396597 0 0 1-154.149835 29.591968c-120.77387 0-210.923773-46.10795-210.923773-87.053906s89.805904-86.709907 210.235774-86.709907a375.741596 375.741596 0 0 1 154.837834 29.935968c34.409963 16.515982 56.08594 37.849959 56.08594 57.117938 0 19.612979-20.989977 41.634955-56.08594 57.117939z m58.494937-370.579602v91.526902a184.429802 184.429802 0 0 0-45.074952-28.902969 407.396562 407.396562 0 0 0-167.913819-34.408963 333.762641 333.762641 0 0 0-209.891775 59.182936v-92.214901c4.129996-40.257957 92.9029-84.299909 211.267773-84.299909 118.365873 0 206.450778 44.385952 211.612773 84.989909v4.126995zM806.191134 389.850174v93.2469a184.429802 184.429802 0 0 0-45.074952-28.902969 407.396562 407.396562 0 0 0-167.913819-34.408963 333.762641 333.762641 0 0 0-209.891775 59.182936v-92.214901c4.129996-40.257957 92.9029-84.299909 211.267773-84.299909 118.365873 0 206.450778 44.385952 211.612773 84.987908v4.129996z"  horiz-adv-x="1101" />

    
    <glyph glyph-name="duanxin2-copy" unicode="&#59572;" d="M821 664.9s90.2-150.3 20-344.3c-13-35.6-34.9-67.6-64.4-91.4-111.9-90.4-281.3-80.2-287.9-83.5-7.6-3.8-14.2-30.6-67.3-87.5l82.5 56.3s287.8-10.8 358.8 75.9c68.3 83.5 79.7 264.6 24.7 365.8-24.7 70.8-43.7 108.7-66.4 108.7zM387.5 34.700000000000045c-4.4 0-8.5 2.6-10.3 6.6-1.9 4-1.2 8.8 1.7 12.2 17.5 20.5 19.7 31.5 18.6 55.8-76.5 7.8-130.2 15.7-168.3 24.9-45 10.9-82.5 40.3-102.9 80.8C73 321 90.6 481.1 114.8 596.7c12.5 59.8 61.4 106.3 121.8 115.7 267.6 41.6 484.6 15.1 580.9-29.7 44.1-20.5 80.8-79.4 100.7-161.5C943.7 415.9 939 270.6 871 183.29999999999995c-63.3-81.3-227-86.7-364.3-81.6-1.5-1.5-3.2-3.5-5-5.4-18.2-20-56.1-61.6-114.2-61.6zM137.2 592.1c-19.2-91.7-43.4-261.4 9.6-366.8 17.3-34.5 49.4-59.6 87.9-68.9 38.7-9.3 94.2-17.4 174.9-25.4 5.6-0.6 9.9-5.1 10.2-10.6 1.5-24.4 1.8-41-8.2-59.9 34.9 8.9 59.2 35.5 73.4 51.1 4.3 4.7 7.4 8.1 10.2 10.4 2.2 1.8 4.9 2.8 7.7 2.6 132.8-5.1 292.6-1.4 350.3 72.8 63.3 81.4 67.2 218.6 43 318.6-18 74.3-50.9 128.9-88.2 146.2-93.3 43.3-305 68.6-567.9 27.8-51-7.9-92.4-47.2-102.9-97.9zM301.8 348.5c-4.4 0-8.9 0.5-13.4 1.6-29.6 7.1-49.3 22.3-58.5 45.2-7.1 17.7-5.7 36.8 3.8 53.8 10.8 19.1 31 32.8 54.1 36.5 38.9 6.3 57.1-12.9 64.5-24.9 15.2-24.6 12.6-62.4-5.9-87.9-11.3-15.8-27.2-24.3-44.6-24.3z m0.8 115.6c-3.5 0-7.1-0.3-11-1-16.3-2.7-30.5-12.1-38-25.2-6.1-10.8-7-22.9-2.5-34.1 6.3-15.6 20.6-26.2 42.6-31.5 17.1-4.1 28.1 5.3 34.3 13.8 13 17.9 15.2 46 4.9 62.6-6.2 10.3-16.4 15.4-30.3 15.4z m-12.9 10.3h0.1-0.1zM520.1 348.5c-4.4 0-8.9 0.5-13.4 1.6-29.6 7.1-49.3 22.3-58.5 45.2-7.1 17.7-5.7 36.8 3.8 53.8 10.8 19.1 31 32.8 54.1 36.5 38.8 6.3 57.1-12.9 64.5-24.9 15.2-24.6 12.6-62.4-5.9-87.9-11.3-15.8-27.2-24.3-44.6-24.3z m0.8 115.6c-3.5 0-7.1-0.3-11-1-16.3-2.7-30.5-12.1-38-25.2-6.1-10.8-7-22.9-2.5-34.1 6.3-15.6 20.6-26.2 42.6-31.5 17.1-4.1 28.1 5.3 34.3 13.8 13 17.9 15.2 46 4.9 62.6-6.2 10.3-16.4 15.4-30.3 15.4zM508 474.4h0.1-0.1zM738.4 348.5c-4.4 0-8.9 0.5-13.4 1.6-29.6 7.1-49.3 22.3-58.5 45.2-7.1 17.7-5.7 36.8 3.8 53.8 10.8 19.1 31 32.8 54.1 36.5 38.8 6.3 57.1-12.9 64.5-24.9 15.2-24.6 12.6-62.4-5.9-87.9-11.4-15.8-27.2-24.3-44.6-24.3z m0.8 115.6c-3.5 0-7.1-0.3-11-1-16.3-2.7-30.5-12.1-38-25.2-6.1-10.8-7-22.9-2.5-34.1 6.3-15.6 20.6-26.2 42.6-31.5 17.1-4.1 28.1 5.3 34.3 13.8 13 17.9 15.2 46 4.9 62.6-6.2 10.3-16.4 15.4-30.3 15.4z m-12.9 10.3zM900.9 512.3c-2 0-4 0.8-5.5 2.3l-19.3 20.1c-2.9 3-2.8 7.8 0.2 10.7 3 2.9 7.8 2.8 10.7-0.2l19.3-20.1c2.9-3 2.8-7.8-0.2-10.7-1.4-1.4-3.3-2.1-5.2-2.1zM912.1 459.9c-1.9 0-3.9 0.7-5.4 2.2l-22.8 22.8c-3 3-3 7.8 0 10.7 3 3 7.8 3 10.7 0l22.8-22.8c3-3 3-7.8 0-10.7-1.4-1.4-3.4-2.2-5.3-2.2zM915.9 410.6c-1.9 0-3.9 0.7-5.4 2.2l-26.6 26.6c-3 3-3 7.8 0 10.7 3 3 7.8 3 10.7 0l26.6-26.6c3-3 3-7.8 0-10.7-1.4-1.5-3.4-2.2-5.3-2.2zM912.1 357.4c-1.9 0-3.9 0.7-5.4 2.2l-26.6 26.6c-3 3-3 7.8 0 10.7 3 3 7.8 3 10.7 0l26.6-26.6c3-3 3-7.8 0-10.7-1.4-1.4-3.4-2.2-5.3-2.2zM908.3 308.1c-1.9 0-3.9 0.7-5.4 2.2l-30.4 30.4c-3 3-3 7.8 0 10.7 3 3 7.8 3 10.7 0l30.4-30.4c3-3 3-7.8 0-10.7-1.4-1.5-3.4-2.2-5.3-2.2zM893.1 262.5c-1.9 0-3.9 0.7-5.4 2.2l-34.2 34.2c-3 3-3 7.8 0 10.7 3 3 7.8 3 10.7 0l34.2-34.2c3-3 3-7.8 0-10.7-1.4-1.4-3.4-2.2-5.3-2.2zM874.1 217c-1.9 0-3.9 0.7-5.4 2.2l-38 38c-3 3-3 7.8 0 10.7 3 3 7.8 3 10.7 0l38-38c3-3 3-7.8 0-10.7-1.4-1.5-3.3-2.2-5.3-2.2zM847.5 179c-1.9 0-3.9 0.7-5.4 2.2l-45.6 45.6c-3 3-3 7.8 0 10.7 3 3 7.8 3 10.7 0l45.6-45.6c3-3 3-7.8 0-10.7-1.4-1.5-3.3-2.2-5.3-2.2zM813.4 148.60000000000002c-1.9 0-3.9 0.7-5.4 2.2l-45.6 45.6c-3 3-3 7.8 0 10.7 3 3 7.8 3 10.7 0l45.6-45.6c3-3 3-7.8 0-10.7-1.4-1.4-3.4-2.2-5.3-2.2zM764 129.60000000000002c-1.9 0-3.9 0.7-5.4 2.2l-41.8 41.8c-3 3-3 7.8 0 10.7 3 3 7.8 3 10.7 0l41.8-41.8c3-3 3-7.8 0-10.7-1.4-1.4-3.3-2.2-5.3-2.2zM707.1 114.39999999999998c-1.9 0-3.9 0.7-5.4 2.2L671.3 147c-3 3-3 7.8 0 10.7 3 3 7.8 3 10.7 0l30.4-30.4c3-3 3-7.8 0-10.7-1.4-1.4-3.4-2.2-5.3-2.2zM653.9 103.10000000000002c-1.9 0-3.9 0.7-5.4 2.2l-30.4 30.4c-3 3-3 7.8 0 10.7 3 3 7.8 3 10.7 0l30.4-30.4c3-3 3-7.8 0-10.7-1.4-1.5-3.3-2.2-5.3-2.2zM589.4 103.10000000000002c-1.9 0-3.9 0.7-5.4 2.2l-22.8 22.8c-3 3-3 7.8 0 10.7 3 3 7.8 3 10.7 0l22.8-22.8c3-3 3-7.8 0-10.7-1.4-1.5-3.4-2.2-5.3-2.2z"  horiz-adv-x="1024" />

    
    <glyph glyph-name="xinxi1-copy-copy-copy" unicode="&#59573;" d="M999.042 656.204C978.993 765.487 893.481 851.01 784.191 871.053 695.503 887.321 606.834 895.634 518.166 896h-12.335c-88.667-0.366-177.343-8.679-266.019-24.947C130.517 851.01 45.001 765.487 24.954 656.204c-16.376-89.275-24.693-178.55-24.954-267.826v-8.734c0.26-89.276 8.577-178.551 24.954-267.827 20.047-109.284 105.563-194.811 214.858-214.86 90.729-16.628 181.458-24.954 272.183-24.954 90.731 0 181.457 8.326 272.196 24.954 109.289 20.049 194.802 105.576 214.851 214.859 16.641 90.741 24.953 181.452 24.953 272.194 0 90.726-8.312 181.453-24.953 272.194zM653.998 458.396c-35.295 64.941-32.334 143.895 7.716 206.019a318.708 318.708 0 0 1-143.199 35.928l-4.21-0.085c-110.009-0.2-212.101-57.127-269.895-150.474-57.793-93.342-63.085-209.872-13.975-308.051 0.148-0.353 0.148-0.777 0-1.123l-28.915-82.266c-5.414-15.36-2.192-32.429 8.423-44.795 10.632-12.358 27.059-18.133 43.1-15.162l90.796 17.491a1.339 1.339 0 0 0 1.05 0 316.812 316.812 0 0 1 170.03-49.823c9.471 0 19.37 0.435 29.348 1.312 151.576 13.729 272.018 132.854 287.031 283.883v1.137c-74.056 0.446-142.007 41.071-177.3 106.009z m-268-156.791l0.259 0.096c-10.234-0.053-18.643 8.063-18.929 18.269a17.422 17.422 0 0 0 4.86 12.859 17.538 17.538 0 0 0 12.671 5.402h1.141c10.147 0 18.361-8.2 18.361-18.309-0.004-10.113-8.216-18.317-18.363-18.317z m253.107 0.093h-63.542l-8.757-50.352c-1.772-9.945-11.285-16.57-21.261-14.816-9.975 1.772-16.624 11.265-14.854 21.197l7.805 43.708h-80.015l-8.772-50.345c-1.759-9.95-11.275-16.578-21.244-14.815-9.976 1.758-16.628 11.246-14.858 21.197l28.739 162.572H385.112c-10.134 0-18.36 8.201-18.36 18.31s8.226 18.309 18.36 18.309h63.542l8.771 50.348c1.76 9.938 11.275 16.578 21.246 14.815 9.974-1.759 16.626-11.252 14.855-21.199l-7.792-43.706h80.015l8.756 50.346c1.822 9.962 11.399 16.576 21.384 14.766h0.447c9.982-1.77 16.647-11.271 14.888-21.231L600.532 442.59a17.402 17.402 0 0 0-2.453-13.802l-16.031-90.471h57.048c10.135 0 18.362-8.188 18.362-18.31 0.008-10.124-8.218-18.309-18.353-18.309z m0.435 118.517h-1.919c-10.146 0-18.359 8.2-18.359 18.311 0 10.11 8.213 18.313 18.359 18.313h1.919c10.145 0 18.36-8.2 18.36-18.313-0.001-10.111-8.215-18.311-18.36-18.311zM479.095 415.894l-14.491-82.248h79.57l14.408 82.248zM664.528 662.6610000000001c-39.035-61.174-41.925-138.912-7.534-202.85 34.404-63.951 100.629-103.952 172.819-104.382 12.367 126.808-53.068 248.462-165.285 307.232z"  horiz-adv-x="1024" />

    


  </font>
</defs>
</svg>
